<svg xmlns="http://www.w3.org/2000/svg" xmlns:xlink="http://www.w3.org/1999/xlink" viewBox="0 0 1678.8 1409.5"><defs><filter id="b" color-interpolation-filters="sRGB"><feGaussianBlur result="result0" stdDeviation="6" in="SourceGraphic"/><feDiffuseLighting lighting-color="#fff" surfaceScale="4" result="result5"><feDistantLight elevation="45" azimuth="235"/></feDiffuseLighting><feComposite in="result5" in2="SourceGraphic" k1="1.4" result="fbSourceGraphic" operator="arithmetic"/><feGaussianBlur in="fbSourceGraphic" stdDeviation="6" result="result0"/><feSpecularLighting lighting-color="#fff" surfaceScale="4" result="result1" specularExponent="25" in="result0"><feDistantLight elevation="45" azimuth="235"/></feSpecularLighting><feComposite in="fbSourceGraphic" in2="result1" k3="1" k2="1" result="result4" operator="arithmetic"/><feComposite operator="in" in="result4" in2="SourceGraphic" result="result2"/></filter><linearGradient id="c" y2="184.83" xlink:href="#a" gradientUnits="userSpaceOnUse" x2="-2693.3" y1="184.83" x1="-2832.5"/><linearGradient id="a"><stop offset="0" stop-color="#002b00"/><stop offset="1" stop-color="#002b00" stop-opacity="0"/></linearGradient><linearGradient id="d" y2="152.65" gradientUnits="userSpaceOnUse" x2="-2859.3" gradientTransform="rotate(-31.036 -2519.162 932.724) scale(.87009)" y1="152.65" x1="-3055.3"><stop offset="0" stop-color="#002b00"/><stop offset="1" stop-color="#002b00" stop-opacity="0"/></linearGradient><linearGradient id="e" y2="281.56" xlink:href="#a" gradientUnits="userSpaceOnUse" x2="-2787.2" gradientTransform="rotate(-31.036 -2519.162 932.724) scale(.87009)" y1="281.56" x1="-2832.7"/><radialGradient id="f" gradientUnits="userSpaceOnUse" cy="365.49" cx="-3021.2" gradientTransform="matrix(.34247 .05034 -.05033 .34242 -1825.2 238.62)" r="95.96"><stop offset="0" stop-color="green"/><stop offset="1" stop-color="green" stop-opacity="0"/></radialGradient></defs><g transform="matrix(2.8262 0 0 2.2207 8185.949 150.729)" filter="url(#b)" fill-rule="evenodd"><path d="M-2563.3 482.78c-5.257-1.874-10.142-6.804-11.854-11.961-1.183-3.566-1.352-33.02-1.074-187.07.365-202.21.807-187.58-6.075-201.31-3.89-7.763-14.396-18.044-22.17-21.695-11.765-5.526-23.034-5.919-32.921-1.146-15.957 7.701-24.964 33.158-20.36 57.544 1.995 10.57 1.623 21.558-.892 26.352-2.366 4.51-8.819 10.458-11.329 10.442-3.298-.02-12.205-6.189-14.745-10.211-3.786-5.998-5.733-16.54-5.762-31.196-.07-35.24 15.256-73.523 35.26-88.081 7.2-5.24 10.039-6.458 19.57-8.397 14.397-2.93 29.39-.536 45.457 7.256 13.776 6.682 22.142 15.2 29.103 29.637 8.675 17.991 12.716 35.37 15.85 68.171 2.55 26.695 4.57 189.3 3.448 277.79-.486 38.335-1.142 71.188-1.459 73.005-.784 4.5-5.899 10.06-10.408 11.312-4.599 1.278-4.842 1.266-9.64-.444z" fill="#f4d7d7"/><path d="M-2575.8 437.86v-22.73l16.742-11.92c9.208-6.556 16.846-11.816 16.972-11.689.127.127.063 10.441-.142 22.921l-.372 22.69-16.18 11.56c-8.9 6.358-16.37 11.636-16.6 11.729-.231.093-.42-10.06-.42-22.562zM-2575.8 347.54v-22.65l16.794-11.99 16.794-11.99.31 10.228c.17 5.625.334 15.796.366 22.602l.058 12.374-16.71 11.869c-9.192 6.528-16.914 11.945-17.162 12.038-.259.097-.45-9.44-.45-22.481zM-2575.8 259.42l.01-22.915 16.216-11.511c8.919-6.33 16.358-11.369 16.531-11.197.227.227 1.068 44.162.85 44.469-.016.024-6.849 4.895-15.182 10.825-8.334 5.93-15.891 11.336-16.794 12.012l-1.642 1.23.01-22.915zM-2575.8 166.46l.023-22.889 15.094-10.681 15.094-10.681.276 1.842c.152 1.013.506 7.978.786 15.479.28 7.5.63 16.594.776 20.209l.267 6.571-12.731 9.086a8543.054 8543.054 0 0 1-16.169 11.52l-3.438 2.433.023-22.89zM-2577.4 96.433c0-7.224-5.732-17.868-14.117-26.213l-4.477-4.456 14.358-10.233c7.897-5.628 14.674-10.354 15.06-10.503 1.836-.704 10.402 18.518 13.625 30.58l1.138 4.258-11.657 8.313c-15.504 11.056-13.93 10.123-13.93 8.254zM-2645.8 63.203c.153-1.353.873-12.007 1.6-23.674s1.397-21.297 1.49-21.398c.504-.556 8.845-2.144 14.017-2.669 6.427-.652 12.513-.224 19.543 1.375 3.039.691 3.528.955 3.526 1.899 0 .602-.568 9.619-1.26 20.036s-1.26 19.2-1.26 19.519c0 .395-.933.288-2.95-.34-11.89-3.7-24.31-1.625-32.346 5.405l-2.639 2.308.28-2.46zM-2673.7 108.35l-15.475-11.245.285-2.525c.492-4.356 2.714-14.934 4.285-20.39 1.565-5.44 4.86-14.686 5.467-15.341.273-.295 23.24 16.049 24.964 17.765.23.228-.384 2.772-1.362 5.654s-2.154 7.4-2.611 10.038c-.994 5.732-1.1 16.668-.222 22.625.34 2.305.511 4.297.381 4.427-.13.13-7.2-4.824-15.712-11.008zM-2674.8 151.66c-1.667-.953-4.54-3.099-6.386-4.768-2.773-2.508-3.622-3.675-4.885-6.712-1.43-3.438-3.487-11.815-3.017-12.285.116-.116 6.288 4.243 13.715 9.687 15.323 11.232 14.375 9.805 9.24 13.895-3.073 2.448-4.649 2.481-8.667.183z" fill="red"/></g><g fill-rule="evenodd"><path d="M1176.001 536.645c-50.621 22.69-116.257 43.224-174.912 60.15 4.882 13.085 10.171 27.229 6.031 41.273-2.011 13.011-7.545 25.767-17.04 35.062 51.903-10.091 124.75 102.399 151.488 95.066 72.96-27.68 105.647-263.472 34.437-231.553z" fill="green"/><path d="M1090.041 697.158c-4.43-.116-13.41-3.679-30.526-12.113-26.477-13.047-35.646-17.15-44.097-19.734-5.799-1.773-11.292-2.714-14.124-2.42-1.341.139-2.508.153-2.593.032-.092-.118 1.118-2.385 2.674-5.03 1.556-2.644 3.841-6.79 5.078-9.211l2.25-4.404 1.714.68c2.761 1.095 12.881 6.857 22.997 13.095 14.64 9.027 58.373 38.064 58.502 38.842.028.173-.816.292-1.876.264zM1113.46 671.62c-9.659-.455-22.1-3.955-65.335-18.378-11.92-3.976-25.506-8.191-30.19-9.365l-8.516-2.135.872-4.15c.654-3.115.745-5.655.366-10.18l-.505-6.029 2.305 1.35c7.082 4.148 18.16 8.767 35.038 14.61 21.601 7.477 29.421 10.241 35.108 12.41 14.89 5.676 29.422 13.994 34.582 19.795 1.013 1.139 1.056 1.345.367 1.76-.43.258-2.27.399-4.092.313zM1114.527 626.101c-9.178.518-19.869-.373-47.635-3.97-31.142-4.035-43.71-4.88-54.042-3.636-1.66.2-3.114.206-3.23.013s-.669-2.881-1.229-5.974c-.56-3.093-1.13-6.226-1.266-6.961l-.247-1.337 10.003 1.356c5.502.746 15.428 2.013 22.06 2.816 27.668 3.35 41.416 5.578 55.476 8.994 10.776 2.617 26.54 7.68 25.589 8.221-.182.103-2.648.319-5.479.479z" fill="#002b00"/><path d="M-2820.5 224.35c30.492 3.687 67.492 12.681 100.15 21.395 1.42-7.601 2.947-15.821 8.92-21.302 4.669-5.598 10.936-10.07 18.094-11.769-27.504-10.029-29.952-84.19-44.73-88.344-42.514-7.696-125.33 94.835-82.436 100.02z" fill="url(#c)" transform="matrix(-1.54757 .9312 -.9312 -1.54757 -2980.008 3510.303)"/></g><g fill-rule="evenodd"><path d="M731.43 986.402c10.263-41.225 155.226-316.06 161-313.715 5.92 2.455 12.02 4.153 18.22 5.664-35.635 82.945-44.007 174.76-70.14 250.312-40.338 15.02-75.052 38.512-109.087 57.745z" fill="green"/><path d="M731.43 986.402c10.263-41.225 155.226-316.06 161-313.715 5.92 2.455 12.02 4.153 18.22 5.664-35.635 82.945-44.007 174.76-70.14 250.312-40.338 15.02-75.052 38.512-109.087 57.745z" fill="green"/><path d="M-3060.3 303.46c15.55-13.306 149.25-80.619 150.86-78.085 1.636 2.618 3.555 4.99 5.566 7.315-37.167 22.583-66.116 56.267-97.488 78.606-20.025-5.382-40.212-5.868-58.942-7.836z" fill="url(#d)" transform="scale(2.0758) rotate(-35.467 -1085.456 -4946.571)"/></g><g fill-rule="evenodd"><path d="M704.052 714.69c50.621-22.689 116.257-43.224 174.912-60.15-4.882-13.084-10.171-27.228-6.031-41.273 2.011-13.01 7.545-25.766 17.04-35.061-51.903 10.09-124.75-102.399-151.488-95.066-72.96 27.679-105.647 263.472-34.437 231.553z" fill="green"/><path d="M790.012 554.178c4.43.116 13.41 3.679 30.526 12.112 26.477 13.048 35.646 17.151 44.097 19.734 5.798 1.773 11.292 2.715 14.124 2.421 1.34-.14 2.508-.154 2.593-.032.092.117-1.118 2.385-2.674 5.03-1.556 2.644-3.841 6.789-5.078 9.21l-2.25 4.404-1.714-.68c-2.761-1.094-12.881-6.857-22.997-13.094-14.64-9.027-58.373-38.064-58.502-38.842-.028-.173.816-.292 1.876-.264zM766.593 579.716c9.658.455 22.1 3.954 65.335 18.377 11.92 3.977 25.506 8.192 30.19 9.366l8.516 2.135-.872 4.15c-.654 3.115-.745 5.655-.366 10.18l.505 6.028-2.305-1.35c-7.082-4.147-18.16-8.766-35.038-14.61-21.601-7.476-29.421-10.24-35.108-12.409-14.89-5.677-29.422-13.994-34.582-19.795-1.013-1.14-1.056-1.345-.367-1.76.429-.258 2.27-.4 4.092-.313zM765.526 625.235c9.178-.519 19.869.372 47.635 3.97 31.142 4.034 43.71 4.88 54.042 3.636 1.66-.2 3.113-.206 3.23-.014s.669 2.882 1.229 5.975c.56 3.093 1.13 6.225 1.265 6.96l.248 1.337-10.003-1.355a1903.978 1903.978 0 0 0-22.06-2.816c-27.668-3.35-41.416-5.578-55.476-8.994-10.776-2.617-26.54-7.681-25.589-8.222.182-.103 2.648-.318 5.479-.478z" fill="#002b00"/><path d="M-2820.5 224.35c30.492 3.687 67.492 12.681 100.15 21.395 1.42-7.601 2.947-15.821 8.92-21.302 4.669-5.598 10.936-10.07 18.094-11.769-27.504-10.029-29.952-84.19-44.73-88.344-42.514-7.696-125.33 94.835-82.436 100.02z" fill="url(#c)" transform="matrix(1.54757 -.9312 .9312 1.54757 4860.06 -2258.968)"/></g><path d="M1026.555 1039.564c2.519-42.41-53.74-347.991-59.962-347.488-6.383.575-12.712.373-19.08-.036 9.235 89.803-10.197 179.926-7.822 259.838 34.01 26.382 60.125 59.17 86.863 87.691z" fill-rule="evenodd" fill="green"/><path d="M-2749.7 367.58c-8.437-18.647-100.95-136.32-103.49-134.71-2.592 1.677-5.336 3.01-8.143 4.263 24.076 36.218 36 79.001 54.934 112.54 20.417 3.621 38.904 11.745 56.7 17.91z" fill-rule="evenodd" fill="url(#e)" transform="scale(2.0758) rotate(27.743 -1397.323 7002.986)"/><path d="M1026.555 1039.564c2.519-42.41-53.74-347.991-59.962-347.488-6.383.575-12.712.373-19.08-.036 9.235 89.803-10.197 179.926-7.822 259.838 34.01 26.382 60.125 59.17 86.863 87.691z" fill-rule="evenodd" fill="green"/><path d="M-2749.7 367.58c-8.437-18.647-100.95-136.32-103.49-134.71-2.592 1.677-5.336 3.01-8.143 4.263 24.076 36.218 36 79.001 54.934 112.54 20.417 3.621 38.904 11.745 56.7 17.91z" fill="url(#e)" fill-rule="evenodd" transform="scale(2.0758) rotate(27.743 -1397.323 7002.986)"/><path d="M1011.963 636.67c-5.796 39.431-42.464 66.697-81.9 60.901-39.436-5.796-66.708-42.46-60.913-81.892 5.796-39.432 42.465-66.697 81.901-60.902 39.436 5.797 66.708 42.46 60.912 81.893z" fill-rule="evenodd" color="#000" stroke="#4d4d4d" stroke-width=".0892594" fill="#002b00"/><path d="M-2845.4 216.52c-2.667 18.147-19.543 30.696-37.693 28.028-18.15-2.668-30.7-19.542-28.033-37.689 2.667-18.147 19.543-30.696 37.693-28.028 18.15 2.668 30.7 19.542 28.033 37.689z" fill-rule="evenodd" color="#000" fill="url(#f)" transform="translate(6915.123 186.74) scale(2.0758)"/></svg>