<svg xmlns="http://www.w3.org/2000/svg" viewBox="0 0 288.59 453.38"><g stroke-width="0" color="#000"><path d="M240.314 319.174c-5.723 7.126-12.75 10.92-23.945 11.261-11.195.342-20.89-2.044-34.015-9.705s-24.594-21.79-33.638-41.088c-3.278-6.994-6.087-23.136-4.743-27.125.986 1.28 5.216 22.242 9.07 28.935 10.683 20.714 22.277 30.37 32.508 36.37 10.231 6 22.16 9.55 33.355 8.01 11.195-1.542 12.521-3.35 18.646-10.134 6.125-6.784 5.523-22.916 5.523-22.916s4.433 17.433-2.76 26.391zM59.027 435.717c.365-1.765.163-3.278-1.105-5.005s-4.216-2.786-6.168-2.173c-1.952.612-3.75 2.525-3.979 6.377-.228 3.852 1.785 6.9 4.912 9.34 3.127 2.44 7.322 3.111 11.273 2.138 3.952-.973 6.713-4.79 8.408-8.847 1.695-4.058 2.033-10.768 2.033-10.768s.775 7.045-1.269 11.554c-2.044 4.51-4.533 7.622-8.817 8.677-4.284 1.055-8.554.744-11.944-1.902-3.39-2.646-5.671-6.348-5.424-10.524.247-4.177 2.501-6.202 4.617-6.866 2.116-.664 5.313.485 6.687 2.356 1.374 1.871 1.594 3.513 1.198 5.426-.362 1.749-2.704 2.439-2.704 2.439s1.948-.609 2.282-2.222zM76.893 341.002c-3.167.86-5.96 2.611-7.062 4.662-.814 1.515-1.395 3.281-.147 5.974 1.651 3.564 5.412 4.979 7.69 3.999.996-.429 3.551-1.164 3.863-3.864.311-2.7-2.525-4.248-2.525-4.248s1.994.775 1.683 3.476c-.312 2.7-1.764 3.226-2.771 3.63-1.872.75-4.662.24-6.49-2.687-1.572-2.518-.914-4.626-.1-6.14 1.102-2.052 3.981-3.791 8.572-4.239 6.406-.624 12.59-.668 12.59-.668s-10.702-1.145-15.303.105zM129.013 327.264c-7.149 6.458-11.047 6.264-15.191 13.864-1.53 2.805-1.078 8.373 2.68 10.048 2.13.95 5.362 1.206 7.66 0 2.298-1.205 4.149-4.753 4.149-4.753s.702 7.681-3.638 8.887c-4.123 1.145-8.681 0-11.362-1.895-2.398-1.694-4.17-6.804-2.426-10.996 2.043-4.908 9.204-10.177 14.17-14.122 5.103-4.053 10.031-7.153 13.775-15.18 4.691-9.781 3.201-14.257 4.927-24.325 1.176 16.474-.655 25.503-14.745 38.471zM218.728 259.521c3.336-2.102 6.283-1.406 9.051-.147s4.859 3.55 5.204 6.495c.184 1.567-.802 3.244-1.919 3.796-1.254.62-2.948-.118-4.148-1.15-.822-.709-1.688-3.113-1.688-3.113.948.507 1 1.471 2.042.511 1.295-1.613.118-3.216-.632-3.816-.82-.655-1.947-1.579-6.156-.86s-9.972 9.634-9.972 9.634c.552-2.263 3.272-8.232 8.218-11.35zM74.117 223.324s3.987 1.169 6.077-.166c2.294-1.465 3.77-3.993 3.104-6.714-.666-2.721-2.342-4.702-5.712-4.928-3.37-.226-6.223 3.25-7.187 5.27-.964 2.02-1.776 7.875-1.087 11.14.634 3 1.012 6.93 5.743 12.05 4.621 5 10.562 6.674 14.378 6.904 6.114.37 16.907-2.413 25.04-8.75 8.132-6.336 12.546-11.2 17.78-20.57 5.233-9.37 7.639-18.73 9.047-24.979 1.405-6.134 2.203-12.181 2.377-18.451 0 0 .093-.222-3.167 14.396s-6.503 23.057-16.002 36.312-21.66 17.73-27.94 19.293c-6.279 1.563-15.979-2.927-19.011-8.038s-3.61-12.601-3.44-12.77zM144.031 107.53c.06 1.74.249 11.883-1.326 17.143-1.575 5.26-5.18 13.79-10.532 18.526-5.206 4.61-13.972 7.752-19.67 6.399-6.775-1.61-10.43-4.843-11.187-9.376-.763-4.575 1.217-10.297 4.991-13.081 3.908-2.884 7.314-3.015 10.896-1.82 3.284 1.095 4.643 5.385 4.643 5.385s-2.022-.941-4.797-.965c-2.776-.023-5.428 1.14-7.105 5.347-1.678 4.208 1.384 7.255 6.974 8.718 4.765 1.248 12.158-1.054 17.145-7.301 6.325-7.923 9.753-26.297 9.967-28.976z"/><path d="M244.9 335.019c4.888 2.436 11.148-3.02 7.707-9.207-1.038-1.867-3.678-4.027-6.045-4.521-2.73-.571-6.953-.24-9.17.475-4.717 1.522-11.155 4.58-15.692 7.81 1.586-2.409 12.202-8.968 18.109-10.271 3.938-.87 9.83-.204 12.267 1.668 3.661 2.813 4.193 6.104 3.628 9.806-.918 6.02-6.678 9.355-12.17 5.969-2.706-1.864-2.6-6.603.3-8.218 1.781-.84 2.844-.084 2.844-.084-.05-.013-1.303.258-2.422 1.095-1.548.82-1.599 3.777.644 5.477zM138.579 122.626c-2.15 3.579-5.66 5.992-9.303 5.72-3.644-.273-8.457-3.422-9.544-6.697-1.087-3.276-.411-5.565 1.126-7.875 1.536-2.31 5.455-3.541 8.19-2.809 2.63.704 5.294 2.157 6.567 4.58 1.064 2.025.412 3.324.412 3.324s1.088-2.013-.089-4.254c-1.408-2.68-3.94-3.934-6.849-4.712-3.027-.81-7.482.508-9.181 3.063-1.7 2.556-2.917 5.259-1.42 9.192s6.168 6.977 10.765 7.212c4.598.235 7.81-2.27 10.189-6.229 2.38-3.959 3.169-10.664 4.469-14.498-1.53 3.645-3.182 10.404-5.333 13.983zM147.266 38.822c.985 3.302 4.299 10.283 7.733 11.243 3.435.96 4.52.541 5.968-2.91-6.024 3.227-10.12-3.265-11.862-8.755-2.802-3.821-3.7-19.915-3.79-23.35-.001 4.036.214 17.954 1.95 23.772zM144.222 111.472c1.76 3.25 4.705 10.056 9.658 11.69 4.516 1.49 7.862.899 10.922-.722 2.499-1.324 3.75-2.173 5.551-5.28.633-1.092 1.254-4.003 1.135-7.11-.119-3.106-1.225-6.103-3.166-8.371-3.475-4.063-6.814-4.604-10.426-4.378-2.71-.01-6.788 4.88-4.784 8.35.497 1.082 1.941 1.85 3.024 1.85 2.372.053 4.282-1.36 3.746-3.16-.541-1.67-1.986-1.986-1.986-1.986s3.385-1.263 4.424 1.806c1.038 3.069-.181 4.78-1.986 5.596-1.4.632-2.754.993-5.371.406-2.618-.586-3.869-2.773-4.288-4.603-.496-2.167.44-6.031 2.934-7.854 3.7-2.705 8.643-1.782 10.155-1.083 3.255 1.388 5.54 3.566 7.034 6.197 1.494 2.63 2.424 5.76 2.156 9.142-.135 1.756-.598 4.506-1.518 6.19s-2.927 3.922-6.11 5.584c-3.182 1.663-6.231 2.073-10.228 1.14-3.997-.932-6.996-4.377-8.17-6.814-1.173-2.437-2.707-6.59-2.707-6.59z"/><path d="M146.111 117.213c1.043 6.824 4.212 13.382 9.382 18.03 2.187 2.049 4.673 4.203 7.845 4.246 4.06.185 8.522-1.362 10.897-4.802 1.655-2.247.457-6.605-2.473-6.449-2.83-.487-3.359 2.093-3.228 3.904-1.991-.336-3.37-2.456-2.61-4.381 1.978-4.002 7.144-4.565 9.88-.412 2.644 3.578 1.727 8.062-.833 11.21-3.096 3.725-8.538 4.3-12.98 3.16-6.27-1.574-11.032-6.78-13.39-12.632-2.085-5.035-3.094-10.425-4.275-15.72-.802-5.543.035-7.97-.444-11.92-.151 1.8.454 2.114.336 2.89.563 4.526.745 8.674 1.893 12.876zM144.622 56.137s-1.325 15.977-6.66 19.792c-3.063 2.19-7.92 1.074-9.524-1.394-1.728-2.66.397-5.005.397-5.005s-3.673-.705-5.025 1.48c-1.352 2.185-1.486 5.012.312 7.246 1.798 2.233 6.677 4.395 10.958 3.119 4.281-1.276 7.454-4.392 8.528-8.188 1.074-3.795 1.014-17.051 1.014-17.051z"/><path d="M122.439 89.972c-6.467 3.513-5.003 12.819 4.745 13.368 2.942.166 6.188-1.165 8.524-3.329 2.694-2.495 5.45-7.175 6.268-10 1.74-6.005 2.976-14.865 2.599-21.834 1.617 3.3 1.343 18.935-1.537 26.05-1.92 4.742-6.984 10.769-11.065 11.818-5.108 1.313-8.764 1.29-12.647-1.808-6.312-5.036-5.901-13.368 2.119-16.876 4.178-1.596 9.606 1.718 9.325 5.87-.348 2.447-2.017 3.057-2.017 3.057.051-.043.669-1.55.53-3.295.199-2.188-3.2-4.24-6.844-3.022zM156.379 148.424c2.03-2.476 5.315-3.775 8.535-3.622 1.884.035 3.79.302 5.444 1.22 4.327 1.984 7.423 5.483 7.784 10.261.417 4.54-1.886 9.404-5.83 11.708-4.169 2.19-9.334 2.979-13.777 1.175-5.197-2.059-8.782-6.771-10.657-11.76-.72-1.83-4.64-11.082-3.754-21.593 1.728 7.405 2.791 13.91 3.845 17.527 1.391 5.664 5.218 10.719 10.355 13.72 3.081 1.824 7.008 1.891 10.32.558 3.341-1.165 6.482-3.406 7.775-6.715 1.837-4.365.133-9.863-4.05-12.307-2.59-1.64-6.285-2.415-9.007-.576-1.703 1.385-2.94 3.664-2.13 5.811.442 1.313 1.335 2.426 2.322 3.397-2.25 1.124-5.293.83-6.902-1.159-1.828-2.097-2.028-5.422-.273-7.644zM174.317 139.18c.624-.593 6.724-6.076 12.3-2.695 4.884 2.962 4.834 9.883 1.287 11.367-2.993 1.252-5.03.686-6.17-.951-1.536-2.02-.139-2.898.758-4.771-2.916 1.485-2.698 3.849-1.357 5.578s3.766 2.108 6.153 1.331c2.45-.797 4.02-2.28 4.338-5.445.318-3.165-2.303-7.17-4.424-8.023-2.12-.853-4.521-1.412-6.977-.83-1.529.362-4.832 2.347-5.909 4.438z"/><path d="M144.366 138.044c-.17 3.203-.909 7.765-3.634 12.44-1.547 2.652-6.646 8.204-11.775 8.832-5.129.627-6.731.237-8.797-2.65 2.275 2.186 6.505 1.964 8.796 1.522 5.46-1.118 9.486-5.68 10.884-8.077 2.464-4.225 4.235-9.358 4.388-12.254M102.599 193.59c.998 2.986.341 6.35-1.498 8.87-1.032 1.506-2.27 2.903-3.92 3.743-3.964 2.423-8.547 3.028-12.75.726-4.031-2.13-6.888-6.633-6.725-11.075.379-4.561 2.463-9.17 6.339-11.784 4.49-3.087 10.352-3.428 15.535-2.235 1.918.41 3.826 1.165 5.156 2.667.966.966-1.302-.335-1.792-.386-5.493-1.95-11.77-1.6-17.02.927-3.169 1.502-5.313 4.643-5.955 8.046-.8 3.336-.588 7.094 1.502 9.937 2.686 3.856 8.207 5.463 12.482 3.406 2.753-1.204 5.368-3.773 5.272-6.974-.257-2.13-1.512-4.367-3.745-4.879-1.336-.355-2.745-.237-4.085.035.253-2.431 2.117-4.734 4.642-4.956 2.732-.34 5.629 1.304 6.56 3.93z"/><path d="M112.132 160.778c-1.019-3.244-4.525-7.51-10.096-5.871-5.57 1.638-7.92 6.936-7.725 13.023.195 6.086 6.885 14.307 15.083 17.248 8.199 2.942 15.545 1.875 22.43-3.563 8.254-6.518 10.967-22.955 11.743-31.865.278.184 1.342 18.907-4.47 28.062-6.12 9.64-16.484 11.484-23.74 11.178-7.687-.325-18.4-6.935-21.817-11.94-3.417-5.005-5.935-15.213-1.9-20.548 4.036-5.335 11.43-7.413 14.438-6.72s8.096 4.04 8.299 8.566c.203 4.527-1.221 5.885-1.221 5.885s-.005-.21-1.023-3.455z"/><path d="M124.867 186.668c-5.705 2.122-9 .834-11.835-.353-2.092-.875-4.219-2.773-5.114-6-1.385-4.994 1.372-10.08 4.521-10.968 1.377-.388 5.687-1.42 7.854 1.439 4.833 6.371-2.196 9.2-2.196 9.2s5.312-3.852 1.588-8.383c-2.277-2.772-4.786-1.855-6.154-1.432-2.542.786-4.94 4.105-4.381 8.625.48 3.887 2.907 5.501 5 6.377 2.834 1.186 6.547 1.91 12.135-.501 6.133-2.647 10.588-6.362 10.588-6.362s-6.11 6.164-12.007 8.357zM145.626 169.878c3.808 9.342 7.289 21.005 14.362 28.24 5.792 4.864 12.916 9.66 20.197 11.946 7.281 2.286 14.72 2.064 21.143-3.105 3.308-2.746 5.244-6.787 5.64-11.405.496-5.837-4.523-11.596-9.107-6.912-3.547 3.625 5.5 6.092 3.032 1.001 4.237-1.364 4.935 4.03 3.061 6.51-7.525 9.963-21.41-6.377-9.483-14.175 1.93-1.059 6.065-1.359 9.386.756 5.04 3.209 7.55 10.176 5.74 16.35-.883 3.014-3.717 7.738-6.85 9.842-3.084 2.07-5.704 5.136-16.891 4.737-10.35-.37-20.478-7.53-27.43-14.99-6.889-7.394-10.15-17.667-13.599-27.135-3.45-9.467-.121-29.084-.121-29.084s-2.889 18.082.92 27.424z"/><path d="M149.372 175.206c2.53 3.754 7.369 8.925 9.677 10.685 4.561 3.842 13.284 9.754 18.414 5.623 2.246-2.137 2.846-4.588.592-6.357-1.984-1.556-4.734 1.324-2.97 3.079-1.17.616-3.927-.981-3.473-3.386.59-3.123 3.255-3.973 4.85-4.031 2.352-.087 3.793.892 5.164 2.186 2.22 2.966 1.516 7.328-2.071 10.17-5.777 4.197-16.172-1.03-20.905-5.434-2.5-1.86-7.217-7.356-9.755-11.558-2.538-4.201-7.105-11.608-5.491-15.753 1.143 5.632 3.438 11.02 5.968 14.775zM110.373 215.418c2.204 2.027 9.77 2.781 9.543-3.348 5.538 1.208 4.723 7.663.988 10.597-2.248 1.82-6.204 2.395-10.365.044-2.291-1.295-7.228-5.613-7.148-13.154.055-5.132 1.557-8.764 6.086-14.487 6.425-8.118 17.636-8.552 17.636-8.552-1.748.127-12.935 3.674-18.865 13.395-3.431 6.202-1.278 12.263 2.126 15.505zM183.58 210.307c3.106-.733 5.073-2.61 5.645-4.383.542-1.68.447-4.173-1.578-6.195s-6.181-1.585-7.577.702c-1.396 2.286-.334 4.914 1.402 5.643 1.161.488 1.015.447 1.015.447s-.124-.093-1.115-.562c-.991-.47-2.203-2.894-.988-4.884 1.216-1.99 4.793-2.737 6.556-.978 1.762 1.76 2.112 4 1.57 5.6-.32.94-2.02 3.276-5.285 3.9-3.47.664-13.02-2.363-13.02-2.363s8.991 4.108 13.376 3.073zM169.993 169.097c6.336-3.905 10.797-3.716 12.657-3.974 1.86-.257 6.068-.991 8.64-3.597 2.571-2.607 3.923-6.415 4.447-10.427l.089.197.088.196c-.215 4.04-1.568 8.11-3.637 10.737-2.068 2.626-6.124 3.579-7.958 3.978.21-.048 4.01-.11 6.796 1.406 2.787 1.516 4.455 4.481 4.17 6.682-.286 2.2-1.63 4.839-5.525 5.799-2.048.505-4.076.359-4.076.359.101-.03 6.076-1.166 7.069-3.912.992-2.747-.198-5.523-1.597-6.914-1.79-1.78-6.638-2.562-10.262-2.604-1.71-.506-4.842.938-10.9 2.074zM108.392 112.2c.753-1.912 3.57-6.109 6.92-7.06 3.35-.953 4.458-.863 6.136.824-1.744-1.203-4.538-.613-6.018-.08-3.52 1.31-5.725 4.74-6.406 6.469-1.199 3.045-1.855 6.982-1.697 8.488a17.485 17.485 0 0 1 1.065-8.64zM146.997 61.694c2.197 3.601 6.666 5.988 10.399 5.038 11.408-3.583 6.374-16.767-1.989-13.916-4.53 1.766-3.912 6.58-3.912 6.58s-.531-5.017 3.571-6.616c7.575-2.582 12.134 9.359 1.802 12.604-3.38.861-7.428-1.301-9.42-4.563-3.056-5.01-1.642-21.77-1.902-28.276.578 6.952-1.925 23.618 1.45 29.15zM207.85 228.475c-1.172.833-2.722 3.042-1.478 4.695s5.061 3.27 7.482 2.147c2.682-1.245 4.12-2.961 4.679-5.488.559-2.526.22-6.558-2.985-9.86-3.887-4.006-7.42-4.267-11.08-5.004-3.699-.745-14.242-.202-17.92-.942-4.552-.47-8.113-2.33-14.188-4.069 0 0 11.18 6.58 21.163 6.206 9.985-.375 16.967 1.255 19.947 3.643 2.979 2.389 5.053 6.159 4.17 9.238-1.074 3.741-3.024 4.8-5.166 4.463-2.5-.171-4.622-2.843-1.478-4.362 0 0-1.973-1.501-3.145-.667z"/><path d="M140.291 213.896c-3.826 11.852-7.146 18.699-11.901 24.1-5.073 5.761-11.382 13.17-28.13 15.406-26.626 3.554-39.281 10.14-42.792 12.704-11.732 8.57-12.614 17.425-13.178 20.299-.563 2.875-1.765 12.313 6.92 21.904s20.54 9.983 23.678 9.797c3.22-.19 16.871-3.09 21.848-18.796 5.017-15.83-7.066-21.972-7.014-21.932 0 0 6.498 9.246 5.01 16.69-5.022 21.832-29.841 26.117-41.743 14.27-9.682-10.8-6.54-20.727-6.54-20.727s.868-10.998 13.345-18.991c3.66-2.345 18.294-9.168 43.91-13.202 26.557-4.183 40.325-32.678 40.127-60.762 0 0-1.536 13.035-3.54 19.24z"/><path d="M76.276 276.62c.874 1.824.84 4.201-.545 6.486-2.545 3.968-9.756 7.979-15.689 2.254-3.762-3.882-5.264-14.449 11.707-22.7-19.641 5.137-16.733 22.079-12.654 26.288 6.114 6.511 16.79 2.979 19.86-1.25 2.833-3.009 3.216-8.118 1.383-11.61-1.52-2.896-6.847-4.071-9.732-3.723 3.05.557 5.093 3.05 5.67 4.254zM73.756 261.01c-6.066.489-8.887-1.649-11.29-3.562-1.776-1.413-3.305-3.818-3.287-7.168.028-5.182 4.066-9.323 7.338-9.32 1.431 0 5.859.182 7.165 3.523 2.914 7.446-4.62 8.255-4.62 8.255s6.161-2.26 3.813-7.635c-1.436-3.287-4.1-3.088-5.531-3.054-2.66.064-5.873 2.604-6.566 7.106-.596 3.87 1.298 6.085 3.074 7.498 2.404 1.913 5.78 3.622 11.813 2.824 6.622-.876 11.921-3.237 11.921-3.237s-7.558 4.266-13.83 4.77zM126.874 245.999c-5.922 7.266-13.154 13.359-18.93 20.745-2.87 3.555-3.756 8.425-2.363 12.883 1.18 3.777 4.859 6.393 8.196 6.57 1.743.075 4.494-.401 5.426-3.15 1.075-2.402-1.783-4.667-3.841-2.916-.428-3.222 3.271-5.521 5.784-3.768 2.888 2.052 2.764 6.787.009 8.918-4.521 4.142-12.243 2.221-15.266-2.807-2.36-3.885-2.119-8.797-1.106-13.067 1.459-3.97 4.468-7.123 7.235-10.237 4.514-4.627 9.12-9.177 13.145-14.251 4.887-5.749 9.22-12.558 12.802-19.297-2.407 7.328-6.279 14.254-11.092 20.378z"/><path d="M137.09 255.243c2.096 3.762-1.555 8.416-6.554 5.93-1.508-.75-2.696-2.402-3.172-4.248-.549-2.13-.441-5.468.042-7.24 1.028-3.77 3.202-8.953 5.581-12.643-1.839 1.337-7.358 10.086-8.17 14.786-.542 3.133.05 7.291 1.74 9.028 2.115 2.175 4.69 3.63 7.587 3.051 4.708-.941 7.125-5.6 4.259-9.802-1.567-2.064-5.296-1.808-6.462.535-.597 1.433.037 2.243.037 2.243-.012-.039.156-1.036.774-1.948.59-1.25 2.917-1.396 4.338.308zM127.386 286.579c-4.021 10.178-4.449 12.71-6.097 22.902-1.468 9.08-7.961 17.91-14.142 21.926-6.182 4.016-14.996 6.312-22.638 6.037-6.988-.251-16.577-3.721-19.547-10.15-2.74-5.93-2.192-15.3 2.195-18.788 4.178-3.32 9.8-4.23 12.903-3.539 3.102.69 5.153.85 5.153.85s-1.83-2.234-7.178-3.223c-2.254-.417-8.447 1.353-11.342 3.526-3.778 2.833-7.449 8.29-7.02 14.388.456 6.493 4.015 13.413 9.475 16.164 6.83 3.44 14.492 6.233 26.305 3.796 7.863-1.622 12.321-4.833 19.058-11.812 6.871-7.119 9.468-16.676 11.658-30.1 2.767-16.966 18.36-38.114 18.36-38.114-2.541-.53-13.068 15.82-17.143 26.137z"/><path d="M109.002 304.89c-4.092 1.341-4.569 7.237.789 8.803 1.617.473 3.61.066 5.213-.968 1.849-1.191 4.035-3.716 4.883-5.346 1.803-3.466 3.723-8.749 4.48-13.074.443 2.23-1.44 12.402-4.032 16.405-1.729 2.67-4.985 5.322-7.406 5.451-3.03.162-5.909-.517-7.643-2.907-2.819-3.887-1.433-8.95 3.524-10.09 2.55-.453 5.117 2.265 4.383 4.778-.534 1.457-1.549 1.622-1.549 1.622.035-.02.588-.867.753-1.956.415-1.318-1.195-3.005-3.395-2.717zM191.067 218.567c3.956 2.286 6.535 6.511 6.838 11.172.257 3.95-2.235 7.712-5.285 9.078-1.6.697-4.338 1.242-6.196-.988-1.867-1.854-.015-4.996 2.536-4.102-.76-3.16-5.039-3.975-6.753-1.435-1.957 2.953-.138 7.326 3.2 8.324 5.708 2.238 12.222-2.33 13.234-8.11.805-4.473-1.186-8.97-3.667-12.59-2.79-3.18-6.731-5.038-10.433-6.949-5.876-2.694-11.812-5.284-10.7-4.008 1.111 1.275 9.18 4.795 17.226 9.609zM111.252 329.54c-4.77 3.47-9.962 4.07-13.249 4.064-2.96-.005-6.95-1.49-8.488-3.178-.908-.998-2.056-2.074-2.755-4.718-.648-2.453.28-5.074 1.881-6.189 1.66-1.155 3.8-1.904 5.626-1.435 1.826.469 3.822 2.352 4.078 3.599.255 1.247.22 2.237-.193 3.137s-1.06 1.175-1.06 1.175-.958-4.45-4.147-3.927c-3.19.523-3.007 3.581-2.575 4.662.633 1.583 2.32 3.594 4.403 4.404 2.202.857 7.225 1.622 12.064-.752 4.838-2.374 7.103-4.49 8.888-7.014 1.785-2.524 1.87-2.586 1.87-2.586s-2.057 5.64-6.343 8.758z"/><path d="M178.214 214.145c2.322 3.972 3.51 8.917 2.56 13.72-1.583 7.22-6.858 13.71-13.356 13.95-8.109 1.568-16.409-2.767-18.789-10.151-1.62-4.622-1.654-10.454 1.457-14.655 2.765-3.708 8.437-4.73 11.63-1.597 2.15 1.756 3.434 4.734 2.858 7.727-.35 2.314-2.282 5.169-3.928 5.652-1.952.475-4.57.326-5.44-1.855-.601-1.424-.64-3.084-.443-4.504l.012.145s.711 3.266 3.384 3.12c1.968-.108 2.986-2.785 3.198-4.674.211-1.888-.598-3.833-2.81-5.062-2.21-1.228-5.635-.345-7.687 1.521-2.051 1.866-2.684 8.375-1.405 13.013 1.28 4.639 4.617 7.223 8.765 9.27 4.147 2.047 7.638 1.224 12.115-.216s7.453-6.57 8.824-9.998c1.37-3.427 1.08-9.152-1.408-13.675-2.488-4.522-8.38-7.958-9.146-8.334 3.45 1.479 7.116 3.362 9.61 6.603z"/><path d="M152.43 249.785c3.368 11.457 12.047 18.038 17.65 21.176 6.685 3.082 14.067 4.798 21.343 4.075 5.977-.593 15.112-2.301 19.506-9.007 2.238-3.533 2.853-7.932 1.895-12.466-1.215-5.728-7.45-9.878-10.3-4.14-2.206 4.44 6.77 4.338 3.058.133 3.483-2.463 5.662 2.516 4.659 5.403-4.032 11.6-21.394-.273-12.721-10.998 1.462-1.54 5.156-2.955 8.795-1.834 5.524 1.7 9.81 7.693 9.921 14.103.054 3.129-1.187 8.427-3.45 11.298-2.227 2.825-3.745 6.478-14.085 9.145-9.566 2.468-22.438 1.659-30.924-3.595-8.412-5.207-12.786-10.369-17.01-19.787-6.881-15.342-7.096-37.164-7.096-37.164 2.733 11.564 3.396 22.62 8.759 33.658z"/><path d="M184.992 265.59c-2.915-.772-3.77-6.458-1.806-8.704 4.548-4.794 10.36-2.523 12.486 2.88 1.247 3.167.392 6.454-1.679 9.27-1.728 2.35-5.448 3.897-10.847 4.276-4.678.329-11.354-1.059-15.92-3.441 1.235 1.097 10.08 5.244 16.398 4.87 6.224-.369 8.924-1.406 11.268-4.678 2.345-3.273 3.37-7.03 1.934-10.678-2.45-6.225-9.144-8.84-14.383-3.319-2.262 2.588-1.278 9.138 2.08 10.027 2.022.392 2.904-.649 2.904-.649s-.68.486-2.435.145zM215.146 246.675c2.104-3.394 4.274-4.6 6.078-4.533 1.76.066 4.134.75 5.55 3.402 1.417 2.653-.091 6.776-2.658 7.542s-4.818-1.078-5.066-3.063c-.166-1.328-.165-1.167-.165-1.167s.057.153.25 1.302c.192 1.149 2.209 3.088 4.443 2.42s3.515-4.01 2.282-6.319-3.843-2.93-4.832-2.962-3.836.79-5.292 3.946c-1.547 3.356.542 10.962.542 10.962s-3.475-7.751-1.132-11.53zM170.623 365.14c2.305-1.912 4.069-9.307-2.036-9.906 1.941-5.326 8.229-3.65 10.634.445 1.502 2.472 1.54 6.47-1.35 10.277-1.59 2.097-6.533 6.408-13.994 5.315-5.078-.743-8.475-2.72-13.538-7.977-7.18-7.457-6.105-18.626-6.105-18.626-.108 1.75 1.903 13.312 10.739 20.494 5.684 4.234 11.98 2.915 15.65-.023zM143.579 320.86c.419 3.089.643 9.49 3.07 14.02 2.628 4.905 10.135 8.902 14.182 9.29 4.047.388 7.951-.417 10.56-3.117-3.032 1.642-7.542 1.882-9.755 1.777-5.28-.312-11.601-4.6-14.169-8.438-2.57-3.843-3.393-10.941-3.772-13.734M187.839 349.289c2.587 1.209 5.551-.009 7.55-1.785 2.826-2.49 4.841-6.302 4.218-10.145-.88-5.17-4.433-9.78-9.107-12.116a15.32 15.32 0 0 0-4.317-1.38c4.756.671 9.426 3.157 11.977 7.332 2.201 3.47 2.825 7.961 1.326 11.826-1.17 3.136-3.394 6.182-6.674 7.288-3.037 1.006-6.465-.532-8.286-3.03-1.736-2.347-1.27-5.828.795-7.82a7.639 7.639 0 0 1 2.518-1.696c-2.72 1.208-4.396 4.42-3.59 7.325.46 1.865 1.847 3.422 3.59 4.2zM197.621 250.998c3.782 1.284 6.224.836 7.574-.363 1.317-1.17 2.716-3.205 2.123-6.154-.592-2.948-4.377-5.173-6.845-4.134-2.469 1.04-3.036 3.895-1.965 5.585.715 1.13.614 1.005.614 1.005s-.054-.154-.635-1.163c-.581-1.01-.256-3.788 1.893-4.693s5.262.863 5.777 3.43c.516 2.566-1.104 4.705-1.849 5.357-.744.653-3.463 1.829-6.593.316-3.327-1.607-6.547-8.808-6.547-8.808s2.243 8.193 6.453 9.622z"/><path d="M199.117 276.455c11.8-1.88 13.357-5.465 25.259-3.898 4.393.578 8.136 3.054 8.588 7.535.256 2.54-.91 5.578-3.56 6.782-2.65 1.204-4.81 2.16-4.81 2.16s6.398 4.153 9.998 1.14c3.42-2.861 4.035-7.686 2.794-11.365-1.11-3.29-3.636-6.618-9.95-7.962-7.392-1.573-17.636 1.136-25.123 2.816-7.692 1.726-15.703 2.235-27.98.019-4.784-1.827 13.868 3.617 24.785 2.773zM97.894 269.336c1.36.467 3.475 2.143 2.752 4.082-.722 1.938-3.922 4.574-6.562 4.185-2.926-.43-4.792-1.667-6.046-3.93s-2.077-6.225.057-10.303c2.588-4.945 5.902-6.2 9.202-7.948 3.334-1.765 13.596-4.242 16.911-5.997 4.232-1.745 7.116-4.541 12.447-7.935 0 0-8.848 9.487-18.526 11.967-9.68 2.48-15.91 6.027-18.087 9.163-2.177 3.137-3.094 7.341-1.371 10.042 2.093 3.281 4.262 3.742 6.221 2.81 2.348-.875 3.623-4.04.177-4.602 0 0 1.465-2 2.825-1.534z"/><path d="M183.902 313.88c13.286 1.884 22.99-1.226 28.362-6.502 5.37-5.277 8.857-11.213 6.878-16.772-1.978-5.56-4.635-7.12-8.103-7.16-1.51-.018-4.701 1.232-4.57 5.747-3.68-1.348-4.799-4.418-2.874-8.48 2.544-3.864 5.438-3.605 8.857-2.921 3.77.753 6.378 4.121 8.386 6.972 2.92 4.146 2.67 12.575.66 16.96-2.073 4.523-5.293 8.626-11.59 12.25-6.878 3.957-16.976 7.444-30.245 1.413-15.338-6.971-24.31-28.832-24.31-28.832s15.264 25.44 28.55 27.324z"/><path d="M153.236 282.878c.33 1.414 6.22 16.678 14.982 22.755s16.938 2.628 18.609 1.932c2.26-.942 7.221-4.62 7.632-12.013.287-5.164-.586-9.362-3.298-12.296-1.517-1.642-4.758-4.429-9.045-4.664-3.923-.255-7.69.664-9.658 4.805 1.926-1.293 3.96-2.682 6.266-2.874 4.348-.906 12.803 1.167 13.52 12.202.57 8.748-5.933 12.638-8.715 13.568-3.182 1.065-8.386 1.32-12.438-.66-5.883-2.872-17.478-22.142-17.855-22.754zM222.1 329.822c12.424.027 20.607 1.186 28.61 5.373 5.13 2.685 9.383 9.907 10.045 13.125 1.299 6.303 1.416 9.593-1.228 14.841-1.449 2.876-4.65 6.599-9.445 8.455-8.571 3.318-17.134-5.234-18.36-9.002-1.097-3.377-.814-8.665-.814-8.665s-2.017 2.967-.96 6.673c1.965 6.882 5.302 8.894 9.376 11.44 2.752 1.72 8.516 2.476 11.763 1.653 3.19-.808 8.527-4.59 11.066-9.416 3.51-6.674 2.845-11.487.805-17.067-3.155-8.632-12.057-16.411-20.694-18.069-14.96-2.87-19.53.725-41.114-1.04 0 0 7.967 1.672 20.95 1.7z"/><path d="M210.048 332.335c9.19 1.844 18.646 1.95 27.8 3.98 4.475.92 8.256 4.116 10.014 8.442 1.49 3.667.313 8.025-2.151 10.283-1.298 1.166-3.724 2.547-6.191 1.017-2.357-1.17-1.59-4.736 1.112-4.693-1.718-2.759-6.036-2.182-6.86.77-.926 3.419 2.18 6.995 5.662 6.888 6.122.324 10.862-6.067 9.999-11.871-.647-4.499-3.956-8.138-7.453-10.79-3.65-2.137-7.977-2.657-12.092-3.302-6.426-.703-12.875-1.287-19.207-2.645-7.427-1.33-15.1-3.833-22.149-6.758 6.517 4.127 13.908 7.012 21.516 8.679zM167.126 330.852c-1.651 4.918 4.026 9.518 9.584 5.411 1.678-1.239 2.734-3.463 2.86-5.745.147-2.633-.82-6.529-1.861-8.496-2.213-4.185-6.197-9.757-10.06-13.529 2.607 1.134 11.619 10.102 13.798 15.431 1.452 3.553 1.76 8.578.105 11.021-2.072 3.058-4.892 5.38-8.618 5.387-6.057.012-10.21-4.887-7.716-10.505 1.421-2.796 6.095-3.382 8.124-.906 1.096 1.542.514 2.643.514 2.643.005-.048-.452-1.18-1.444-2.104-1.04-1.328-3.955-.947-5.286 1.392zM137.811 301.308c2.83 3.247.22 8.556-5.183 7.159-1.631-.422-3.136-1.792-3.983-3.5-.978-1.97-1.564-5.258-1.458-7.093.225-3.9 1.28-9.42 2.843-13.524-1.522 1.689-5.112 11.39-4.933 16.157.119 3.178 1.558 7.123 3.571 8.473 2.52 1.69 5.34 2.58 8.054 1.415 4.412-1.896 5.813-6.954 2.138-10.472-1.959-1.695-5.554-.673-6.21 1.86-.288 1.526.5 2.187.5 2.187-.02-.035-.062-1.045.354-2.065.318-1.345 2.565-1.97 4.307-.597zM118.81 323.294c-7.685 4.76-14.14 11.468-18.387 19.464-4.687 7.424-11.032 13.064-18.696 18.1-7.664 5.035-22.457 4.454-31.124 2.219-8.668-2.235-13.267-5.982-17.794-12.522-4.527-6.54-6.182-15.757-2.004-23.246 2.81-5.64 8.755-9.74 15.19-9.37 5.99.184 12.954 1.737 16.271 7.26 2.732 9.557-2.766 14.096-9.898 11.732-.99 2.122 1.635 6.295 4.048 6.45 5.583 2.123 11.4-1.694 12.87-7.749 1.47-6.054-1.135-12.57-6.32-15.987-5.557-3.688-12.642-4.333-19.134-3.76-7.883 1.113-14.273 7.29-16.65 14.732-2.118 6.725-1.04 14.237 1.846 20.578 4.844 10.25 16.033 15.757 26.846 17.135 7.159.872 14.637.736 21.531-1.53 9.886-4.08 17.572-12.048 24.023-20.36 5.662-7.813 11.65-15.386 17.383-23.146z"/><path d="M181.475 319.987c1.285.296 25.587 12.966 31.066 18.362 5.124 5.046 7.866 7.417 6.114 16.296-2.247 6.727-10.364 11.082-16.712 7.08 4.989-.694 7.212-3.738 6.428-8.19-1.31-3.974-6.993-3.978-9.684-2.034-3.375 2.44-3.326 10.257.673 12.628 3.999 2.37 6.421 2.347 10.114 1.843 3.693-.504 8.31-4.18 10.742-9.71 2.433-5.532 1.046-10.01-3.592-17.167s-39.333-24.034-40.71-24.35zM152.501 307.81c-1.688 3.962 2.434 8.205 7.142 5.207 1.42-.905 2.428-2.673 2.707-4.56.321-2.175-.137-5.483-.805-7.195-1.419-3.64-4.128-8.565-6.882-11.984 1.97 1.135 7.63 9.183 8.933 13.771.869 3.059.76 7.828-.738 9.734-1.874 2.386-3.572 3.603-6.514 3.333-4.781-.44-7.676-4.818-5.268-9.3 1.34-2.216 5.075-2.356 6.482-.148.745 1.362.2 2.234.2 2.234.008-.04-.264-1.014-.975-1.855-.718-1.18-3.048-1.081-4.281.763zM160.414 392.086c12.501 7.988 23.778 9.442 31.718 6.775s14.294-6.85 14.956-13.193c.661-6.344-1.272-9.099-4.751-10.742-1.516-.716-5.332-.972-7.358 3.498-3.068-3.019-2.729-6.534 1.155-9.61 4.413-2.595 7.209-1.004 10.33 1.246 3.442 2.48 4.464 6.975 5.127 10.688.965 5.4-3.318 13.514-7.442 16.866-4.253 3.457-9.462 5.974-17.547 6.598-8.83.681-20.683-.586-31.186-12.615-12.14-13.904-10.74-39.4-10.74-39.4s3.236 31.902 15.737 39.89z"/><path d="M211.616 405.431c6.869 2.374 15.358 5.242 18.374 16.201 3.015 10.96-1.02 20.15-6.873 23.548-5.579 3.24-10.582 2.357-13.799 1.558-3.216-.8-6.988-5.459-7.027-9.42.553-6.024 2.985-7.303 6.393-8.897l-.048-.022s-1.426-.654-6.429.769c-5.122 1.5-8.784 6.78-6.901 13.621.55 3.632 4.241 6.79 8.378 8.8 4.137 2.01 7.29 1.992 12.407 1.523 5.118-.47 8.19-4.13 8.19-4.13s11.129-9.654 9.135-23.412c-1.994-13.758-12.384-19.876-22.49-23.722-10.105-3.846-34.89.896-36.29 1.494 5.186 2.603 29.65-.444 36.98 2.09z"/><path d="M184.913 403.706c10.044-.94 19.82-4.355 28.02-10.074 8.357-4.954 17.495-7.387 27.654-8.603 10.16-1.217 24.682 6.415 32.256 12.723 7.575 6.309 10.329 12.137 11.632 20.64 1.303 8.5-1.59 18.223-9.471 23.484-5.598 4.121-13.575 5.254-19.834 1.82-5.906-3.04-12.112-7.874-12.707-14.812 1.984-10.567 9.729-12.338 15.703-6.639 2.039-1.582 1.472-6.88-.868-8.185-4.541-4.725-12.25-3.806-16.711 1.358s-5.07 12.723-1.567 18.514c3.743 6.23 10.517 10.24 17.3 12.788 8.441 2.69 17.889-.244 23.944-6.32 5.44-5.503 8.07-13.298 8.312-20.822.21-12.248-8.272-22.933-18.417-29.436-6.736-4.266-14.29-7.708-22.31-8.807-11.913-.771-23.542 3.278-34.104 8.249-9.527 4.865-19.26 9.343-28.833 14.122zM115.826 410.916c-6.147.765-14.664-.779-16.654-.85-1.991-.07-7.042-.058-10.474 1.348-3.432 1.406-8.844 6.262-10.491 9.215-1.463 2.62-3.564 7.761-2.534 14.017s5.56 11.551 12.355 13.449c6.796 1.898 12.013.562 15.377-2.25 3.363-2.811 5.076-5.202 4.736-8.739-.34-3.536-2.746-6.958-6.59-7.52-3.844-.563-6.933 1.475-7.508 4.25.712-2.94 4.061-5.15 8.229-4.54 4.167.61 6.776 4.32 7.144 8.154.368 3.834-1.488 9.161-5.135 12.21s-9.303 4.496-16.671 2.438c-7.368-2.057-12.28-10.533-13.396-17.315-1.117-6.783 1.242-11.943 2.828-14.784 1.786-3.201 7.814-8.383 11.535-9.907 3.721-1.525 9.601-1.372 11.759-1.296 2.158.076 8.912 1.832 15.554.838 6.623-.99 15.298-8.875 15.298-8.875s-6.799 9.092-15.364 10.158zM49.363 376.858c-22.629 1.94-31.89 9.16-38.1 18.43-6.21 9.268-8.363 23.723-6.946 29.421 1.473 5.928 5.144 13.75 12.419 16.058 7.472 2.372 12.858.605 16.524-3.233 4.736-4.957 6.42-9.591 5.894-16.274-.444-5.64-3.084-7.873-6.42-8.514-3.368-.646-6 1.293-6.946 3.018-.948 1.724-.737 4.203-.737 4.203l-.105-.108c-4.3-3.978-3.371-6.408-2.316-9.484 1.055-3.075 4.181-4.85 9.052-4.742 4.87.108 9.051 5.173 10.525 11.855 1.473 6.682-.526 11.855-3.052 16.705-2.526 4.85-7.683 8.406-13.683 9.377-5.999.97-10.945-.647-16.84-5.712-5.547-4.768-8.84-14.227-8.63-24.68.211-10.454 7.579-21.555 10.841-25.542 2.494-3.048 12.104-12.61 24.628-15.196 11.948-2.467 19.366-1.509 32.417 4.31 13.067 5.828 19.471 15.304 21.102 19.885-.263.053-16.997-21.717-39.626-19.777z"/><path d="M78.192 401.035c-.16 3.598-2.196 6.918-5.126 8.852-1.68 1.182-3.532 2.164-5.589 2.38-5.106.955-10.125-.286-13.58-4.472-3.346-3.931-4.514-9.913-2.558-14.587 2.228-4.711 6.251-8.771 11.342-9.967 5.921-1.446 12.167.602 17.09 4.008 1.834 1.228 3.518 2.818 4.302 4.968.618 1.428-1.223-.892-1.713-1.149-4.941-4.341-11.625-6.55-18.11-6.014-3.907.299-7.404 2.767-9.44 6.136-2.174 3.23-3.465 7.328-2.429 11.222 1.25 5.222 6.358 9.209 11.64 8.772 3.354-.151 7.112-1.817 8.298-5.273.588-2.378.179-5.283-1.943-6.748-1.25-.928-2.765-1.383-4.27-1.644 1.24-2.49 4.108-4.18 6.829-3.378 2.984.76 5.342 3.708 5.258 6.894zM44.875 390.977c-2.825 3.978-9.258 2.413-9.092-3.968.05-1.925 1.165-3.95 2.812-5.329 1.9-1.59 5.332-3.075 7.355-3.422 4.303-.737 10.577-.959 15.436-.254-2.22-1.27-13.183-2.12-18.327-.714-3.43.937-7.935 3.837-8.9 6.424-1.209 3.238-1.399 5.62.551 8.35 3.17 4.44 9.027 4.722 11.936-.268 1.353-2.614-.66-6.365-3.584-6.455-1.732.065-2.254 1.111-2.254 1.111.033-.03 1.123-.333 2.337-.127 1.544.014 2.788 2.361 1.73 4.653zM132.943 395.977c-.818.762-8.782 7.773-14.884 2.362-5.346-4.74-4.317-14.48.074-16.156 3.706-1.414 6.028-.38 7.145 2.058 1.528 3.022-.244 4.097-1.563 6.63 3.646-1.753 3.72-5.106 2.381-7.697-1.34-2.59-4.146-3.407-7.07-2.59-3.002.837-5.06 2.743-5.88 7.162-.818 4.42 1.712 10.365 4.094 11.812 2.382 1.448 5.135 2.515 8.112 1.982 1.855-.333 6.028-2.744 7.591-5.563z"/><path d="M106.693 374.949c.148-3.887-1.935-9.831-8.41-10.212-6.475-.38-10.94 4.42-13.024 11.05-2.084 6.63 1.86 18.061 9.377 24.386 7.517 6.325 18.314 7.595 27.6 4.39 11.133-3.84 15.447-21.32 19.614-30.618.224.305-3.647 22.113-13.203 29.734-10.064 8.026-21.657 6.02-29.173 2.895-7.964-3.31-16.745-14.555-18.457-21.261-1.712-6.706-.521-18.67 5.73-22.862 6.252-4.191 14.81-3.582 17.713-1.676 2.902 1.905 6.995 7.468 5.507 12.421-1.488 4.954-3.498 5.868-3.498 5.868s.075-.228.224-4.115zM120.937 196.765c-3.987 1.63-4.04 7.545 1.416 8.724 1.646.356 3.606-.193 5.13-1.338 1.759-1.32 6.953-6.754 7.683-8.44 1.55-3.587 6.137-8.703 6.583-13.07.601 2.192-3.21 8.845-5.51 13.023-1.534 2.786-9.03 11.617-11.435 11.92-3.01.377-5.074.049-6.975-2.212-3.09-3.675-2.07-8.823 2.794-10.316 2.511-.634 5.265 1.893 4.713 4.452-.428 1.492-1.43 1.729-1.43 1.729.034-.023.526-.907.612-2.005.32-1.344-1.407-2.912-3.58-2.467zM107.237 228.94c.449-3.116-.799-6.308-3.06-8.46-1.284-1.297-2.751-2.45-4.525-2.981-4.334-1.675-8.95-1.45-12.674 1.565-3.586 2.816-5.592 7.758-4.637 12.1 1.189 4.42 4.063 8.58 8.343 10.46 4.971 2.234 10.798 1.522 15.686-.578 1.813-.748 3.555-1.83 4.596-3.546.777-1.123-1.222.561-1.694.7-5.056 2.9-11.295 3.677-16.911 2.13-3.387-.911-6.059-3.617-7.298-6.851-1.383-3.14-1.848-6.875-.3-10.045 1.954-4.275 7.099-6.843 11.673-5.584 2.924.692 5.956 2.753 6.434 5.92.128 2.14-.707 4.567-2.813 5.469-1.25.588-2.658.724-4.025.697.683 2.346 2.93 4.279 5.453 4.045 2.75-.153 5.305-2.29 5.752-5.04z"/><path d="M133.042 348.62c1.867 9.45 5.107 11.626 3.884 20.196-.451 3.163-4.144 7.355-8.158 6.45-2.275-.512-5.018-2.24-6.139-4.58-1.12-2.34-.482-6.29-.482-6.29s-4.244 5.188-2.399 9.298c2.227 4.957 7.155 5.584 10.24 5.276 2.921-.293 7.41-2.96 8.519-7.363 1.298-5.155-1.29-13.66-2.912-19.793-1.666-6.3-4.155-13.305-2.356-21.978-.074-3.956.846-4.292 4.5-13.983-7.844 7.976-7.448 23.39-4.698 32.767zM153.433 340.595c1.862 1.08 5.925 2.924 8.081 5.615 2.334 2.913 2.532 8.562 1.498 11.136-1.035 2.575-2.794 4.744-5.367 5.617 2.024-1.414 3.611-4.104 4.246-5.483 1.475-3.306.712-8.31-.952-10.9-1.665-2.595-5.99-4.99-7.673-5.967M166.004 395.432c1.94.932 5.751 3.253 9.189 3.52 3.72.29 8.502-2.725 10.048-5.028s2.349-4.98 1.622-7.597c-.03 2.468-1.36 5.294-2.142 6.595-1.903 3.08-6.468 5.265-9.547 5.348-3.082.083-7.496-2.143-9.25-2.986M262.66 423.618c.944 2.695 3.886 3.965 6.553 4.154 3.756.282 7.891-.94 10.205-4.072 3.082-4.243 3.898-10.006 2.303-14.98a15.32 15.32 0 0 0-2.03-4.053c2.843 3.871 4.328 8.949 3.124 13.69-.944 4-3.72 7.585-7.532 9.213-3.06 1.355-6.794 1.893-9.877.318-2.842-1.469-4.137-4.995-3.624-8.044.467-2.882 3.283-4.98 6.15-4.895a7.642 7.642 0 0 1 2.973.615c-2.764-1.1-6.234-.055-7.749 2.552-1.012 1.632-1.157 3.712-.496 5.502zM230.695 386.024c3.08-.488 9.273-2.117 14.311-1.097 5.454 1.104 11.444 7.143 12.98 10.906 1.537 3.763 1.891 7.735.057 11.01.7-3.376-.37-7.765-1.108-9.854-1.819-4.966-7.745-9.784-12.16-11.138-4.42-1.355-11.456-.099-14.239.342M162.947 72.159c4.93 2.78 3.154 9.263-4.662 9.185-2.358-.023-4.862-1.115-6.585-2.749-1.987-1.885-3.88-5.31-4.348-7.338-.995-4.31-1.732-10.783-1.525-15.671-.737 2.51-1.43 13.443.402 18.588 1.222 3.43 4.869 7.914 8.057 8.847 3.99 1.167 6.91 1.325 10.211-.67 5.368-3.246 5.585-9.131-.586-11.983-3.23-1.322-7.779.752-7.826 3.689.118 1.739 1.41 2.248 1.41 2.248-.038-.033-.433-1.123-.207-2.345-.016-1.55 2.83-2.832 5.659-1.801zM174.035 121.537c2.762-.088 9.433 1.15 12.362 4.761 2.929 3.613 3.396 5.021 2.182 7.976.58-2.78-1.61-5.9-3.042-7.436-3.46-3.63-8.863-4.522-11.36-4.443-4.4.14-9.62 1.418-11.405 2.41 2.563-1.498 6.395-3.114 11.262-3.268zM142.942 62.252c-1.27 3.234-3.463 5.984-5.8 6.927-1.724.696-3.696 1.122-6.474-.47-3.675-2.105-4.8-6.201-3.497-8.49.57-1.002 1.64-3.608 4.593-3.653s4.322 3.095 4.322 3.095-.624-2.175-3.577-2.13c-2.954.045-3.678 1.515-4.223 2.53-1.013 1.887-.762 4.87 2.207 7.094 2.553 1.913 4.904 1.443 6.629.746 2.336-.943 3.685-4.037 5.503-8.558 2.596-6.455 2.692-19.718 2.692-19.718s-.529 17.925-2.375 22.626z"/><path d="M171.732 78.392c.76 4.55-.352 10.048-4.265 12.405-4.76 2.866-8.972 1.715-11.71.094-4.897-2.9-8.409-7.386-9.954-13.267-2.175-8.276-.514-27.749-.514-27.749s.02 19.672 1.987 27.153c1.397 5.316 4.655 9.5 9.082 12.12 2.474 1.465 7.179 1.763 10.585-.086 3.498-1.898 4.166-6.976 3.855-11.213-.255-3.473-2.515-5.822-3.463-6.34 2.115.99 3.614 2.199 4.397 6.882zM144.484 26.39c-.985 3.301-4.299 10.282-7.734 11.241-3.434.96-4.724-.895-6.173-4.347 1.574 2.587 5.235 2.158 6.766 1.53 3.647-1.57 5.643-5.862 6.534-8.847 1.57-5.259 2.467-22.54 2.558-25.974 0 4.035-.215 20.578-1.95 26.396z"/><path d="M168.733 92.203c2.002.467 6.563 2.645 7.991 5.822s1.5 4.286.074 6.191c.937-1.9-.051-4.579-.793-5.966-1.806-3.292-5.521-4.976-7.33-5.4-3.188-.744-7.178-.822-8.646-.447a17.485 17.485 0 0 1 8.704-.2zM146.564 380.808c-.333 1.276-.35 28.683 1.896 36.037 2.1 6.877 2.934 10.406 11.615 12.962 7.003 1.122 14.62-4.056 14.012-11.536-2.925 4.1-6.653 4.662-10.235 1.907-2.918-3-.29-8.04 2.68-9.526 3.723-1.863 10.63 1.8 10.88 6.441.25 4.642-.891 6.78-3.047 9.82-2.157 3.04-7.551 5.43-13.58 5.026-6.03-.404-9.356-3.706-13.554-11.13-4.198-7.425-3.097-45.99-2.74-47.358z"/><path d="M143.487 395.242c.333 1.276.35 28.683-1.896 36.037-2.101 6.877-2.934 10.406-11.615 12.962-7.003 1.123-14.621-4.056-14.013-11.536 2.926 4.101 6.653 4.663 10.236 1.907 2.917-3 .289-8.04-2.68-9.526-3.724-1.862-10.631 1.8-10.881 6.442-.25 4.641.891 6.778 3.048 9.819 2.156 3.04 7.55 5.43 13.58 5.027 6.03-.404 9.356-3.706 13.553-11.131 4.199-7.424 3.098-45.99 2.741-47.358zM29.292 369.47c-6.825-3.144-9.892-5.842-11.834-10.58-.987-4.127-.947-6.296 1.865-12.375 0 0-1.251.8-2.255 2.683-1.639 3.074-3.145 6.237-1.43 10.423 1.943 4.738 4.635 7.953 11.835 10.58 9.759 3.561 19.12 2.274 22.391 1.367-4.26-.016-14.195.84-20.572-2.098zM156.477 201.253c3.746 2.126 3.043 8-2.52 8.472-1.678.142-3.551-.653-4.917-1.984-1.575-1.534-3.217-4.443-3.725-6.208-1.08-3.756-1.768-22.526-1.652-26.915-.877 2.098-.641 25.142 1.106 29.58 1.165 2.958 4.144 6.683 6.491 7.29 2.937.76 5.026.699 7.2-1.3 3.535-3.25 3.18-8.487-1.452-10.59-2.41-.95-5.464 1.206-5.244 3.814.234 1.535 1.197 1.897 1.197 1.897-.03-.026-.405-.966-.35-2.066-.145-1.374 1.767-2.708 3.866-1.99zM124.25 147.958c-.752.419-7.804 4.608-6.238 10.938 1.372 5.546 7.994 7.56 10.467 4.617 2.087-2.484 2.154-4.597.931-6.174-1.47-2.068-2.725-.995-4.78-.698 2.287-2.34 4.478-1.428 5.729.367s.89 4.224-.563 6.27c-1.492 2.102-3.375 3.158-6.49 2.519s-6.158-4.336-6.34-6.614c-.183-2.278-.001-4.737 1.286-6.907.801-1.352 3.68-3.914 5.998-4.318zM191.75 419.767c-1.776-.309-3.282-.058-4.967 1.264s-2.65 4.303-1.976 6.234c.675 1.931 2.644 3.669 6.5 3.774s6.84-2.005 9.18-5.208c2.34-3.203 2.876-7.417 1.777-11.335-1.099-3.919-5-6.557-9.11-8.122-4.11-1.565-10.828-1.689-10.828-1.689s7.017-.999 11.59.9c4.571 1.9 7.762 4.288 8.953 8.537 1.19 4.248 1.016 8.526-1.52 11.998-2.537 3.473-6.164 5.871-10.346 5.757-4.182-.114-6.279-2.302-7.01-4.396s.315-5.325 2.142-6.758c1.826-1.434 3.46-1.705 5.384-1.37 1.76.306 2.525 2.624 2.525 2.624s-.67-1.927-2.294-2.21zM145.455 37.661s.413 3.701-.502 6.43c-.914 2.728-1.492 4.725-5.679 7.457-4.186 2.732-8.002-.118-8.625-1.596-.623-1.477-.645-3.648.395-4.58 1.04-.934 3.226-1.542 4.109-.49s1.265 2.743-.56 3.907c.175.026 1.946.456 3.403.016s3.157-1.58 3.606-2.165l.449-.586-3.969-.704c2.024.04 4.01-1.373 5.127-2.726s1.66-2.995 2.246-4.963zM212.436 393.93s4.733-3.575 9.196-4.539c4.463-.963 7.655-1.794 14.732 1.725s6.223 11.07 4.7 13.124c-1.525 2.055-4.476 3.851-6.583 3.183-2.106-.669-4.682-3.17-3.946-5.236.735-2.066 2.74-3.965 5.79-2.409-.105-.261-.93-3.038-2.693-4.68-1.763-1.64-4.68-3.043-5.84-3.183l-1.158-.14 2.203 6.014c-1.56-2.808-5.078-4.383-7.82-4.814-2.74-.43-5.42.16-8.581.955zM54.848 363.677s-5.901-.605-9.825-2.94c-3.924-2.333-6.828-3.899-9.612-11.296-2.785-7.397 2.981-12.343 5.497-12.81 2.515-.467 5.9.228 6.987 2.152 1.087 1.924 1.269 5.51-.676 6.522-1.946 1.011-4.708 1.036-5.881-2.18-.101.262-1.389 2.858-1.215 5.26.174 2.403 1.354 5.417 2.107 6.309l.754.891 2.483-5.904c-.77 3.118.733 6.668 2.447 8.85 1.714 2.182 4.078 3.575 6.934 5.146z"/></g></svg>