<svg xmlns="http://www.w3.org/2000/svg" xmlns:xlink="http://www.w3.org/1999/xlink" viewBox="0 0 124.92 143.46"><defs><radialGradient id="c" gradientUnits="userSpaceOnUse" cy="-8.88" cx="414.68" gradientTransform="matrix(0 .27968 -.60927 0 101.73 -39.26)" r="123.55"><stop offset="0" stop-color="#ffb142"/><stop offset=".887" stop-color="#ffb141"/><stop offset="1" stop-color="#c87600"/></radialGradient><radialGradient id="d" gradientUnits="userSpaceOnUse" cy="483.45" cx="610.46" gradientTransform="matrix(0 -.48219 .4319 0 -151.97 551.35)" r="167.56"><stop offset="0" stop-color="#a5a5a5"/><stop offset="1"/></radialGradient><linearGradient id="e" y2="537.41" gradientUnits="userSpaceOnUse" x2="359.47" gradientTransform="translate(-22.132 165.49) scale(.32584)" y1="537.41" x1="346.24"><stop offset="0" stop-color="#ffb142"/><stop offset="1" stop-color="#c87600"/></linearGradient><linearGradient id="f" y2="232.99" xlink:href="#a" gradientUnits="userSpaceOnUse" x2="991.81" gradientTransform="translate(-3750.6 -720.08) scale(4.0986)" y1="237.27" x1="990.99"/><linearGradient id="a"><stop offset="0"/><stop offset="1" stop-opacity="0"/></linearGradient><radialGradient id="g" xlink:href="#b" gradientUnits="userSpaceOnUse" cy="622.49" cx="380.26" gradientTransform="matrix(0 -.74351 .66041 0 -364.7 582.13)" r="59.255"/><linearGradient id="b"><stop offset="0" stop-color="#a5a5a5"/><stop offset="1"/></linearGradient><linearGradient id="h" y2="232.99" xlink:href="#a" gradientUnits="userSpaceOnUse" x2="991.81" gradientTransform="scale(3.3578) rotate(62.428 638.4 -385.277)" y1="237.27" x1="990.99"/><radialGradient id="i" xlink:href="#b" gradientUnits="userSpaceOnUse" cy="647.69" cx="371.45" gradientTransform="matrix(0 -.74351 -.66041 0 552.03 582.13)" r="59.255"/><radialGradient id="j" gradientUnits="userSpaceOnUse" cy="349.51" cx="488.04" r="41.491"><stop offset="0" stop-color="#fff"/><stop offset="1" stop-color="#dadada"/></radialGradient><filter id="k" width="1.741" y="-.371" x="-.371" height="1.741" color-interpolation-filters="sRGB"><feGaussianBlur stdDeviation="10.59"/></filter><filter id="l" width="1.094" y="-.135" x="-.047" height="1.27" color-interpolation-filters="sRGB"><feGaussianBlur stdDeviation="6.705"/></filter></defs><g fill-rule="evenodd"><path d="M81.781 385.54c-15.668 1.613-33.638 14.291-26.495 17.056 7.143 2.765 27.873 3.918 31.79.692 2.013-1.657 5.614-5.808 6.038-9.704.425 3.895 4.016 8.047 6.028 9.704 3.917 3.226 24.658 2.073 31.8-.692 7.143-2.765-10.827-15.443-26.495-17.056-8.067.778-10.97 3.488-11.333 6.598-.363-3.11-3.265-5.82-11.333-6.598z" color="#000" stroke="#000" stroke-width="1.564" fill="url(#c)" transform="translate(-32.01 -244.9) scale(.95648)"/><path d="M46.215 123.87c-7.356.758-15.234 4.065-20.55 7.549 8.05 3.723 17.895 6.018 28.565 6.282 1.367-1.8 2.592-4.005 2.824-6.136.23 2.111 1.427 4.297 2.776 6.087 10.496-.444 20.136-2.85 27.981-6.642-5.297-3.332-12.847-6.411-19.917-7.139-7.716.744-10.492 3.337-10.84 6.311-.347-2.974-3.123-5.567-10.84-6.311z" fill-opacity=".314"/></g><path d="M146.28 340.23a53.948 53.948 0 0 1-107.9 0 53.948 53.948 0 1 1 107.9 0z" color="#000" stroke="#000" stroke-linecap="round" stroke-width="1.564" fill="url(#d)" transform="translate(-32.01 -244.9) scale(.95648)"/><path d="M81.802 106.32a25.015 25.015 0 1 1-50.031 0 25.015 25.015 0 1 1 50.03 0z" stroke="#000" stroke-linecap="round" stroke-width="1.55810592" fill="#fff"/><path d="M105.867 66.176a52.1 52.1 0 0 1 .165 4.061c0 28.483-23.126 51.6-51.609 51.6-23.505 0-43.343-15.743-49.563-37.253 2.075 26.585 24.319 47.538 51.433 47.538 28.483 0 51.61-23.117 51.61-51.6 0-4.977-.72-9.791-2.037-14.346z" fill-opacity=".314"/><path d="M45.706 46.186c-7.148 0-12.954 6.68-12.954 14.91 0 8.231 5.806 14.91 12.954 14.91 4.2 0 7.928-2.309 10.295-5.882 2.366 3.576 6.101 5.883 10.304 5.883 7.148 0 12.953-6.68 12.953-14.91 0-8.232-5.805-14.911-12.953-14.911-4.202 0-7.938 2.307-10.304 5.882-2.367-3.572-6.095-5.882-10.295-5.882z" stroke="#000" stroke-linecap="round" stroke-width="1.55810592" fill="#fff"/><path d="M56.62 71.905c-4.513 0-9.418 4.11-9.222 6.705.196 2.596 8.044 13.41 9.81 13.41s8.632-10.598 8.436-13.627c-.196-3.028-6.082-6.705-9.025-6.489z" fill-rule="evenodd" fill-opacity=".314"/><path d="M91.917 328.5c-4.718 0-9.846 3.897-9.64 6.359.204 2.461 8.41 12.718 10.255 12.718 1.846 0 9.026-10.051 8.82-12.923-.205-2.872-6.358-6.359-9.435-6.154z" fill-rule="evenodd" stroke="#000" stroke-width="1.629" fill="url(#e)" transform="translate(-32.01 -244.9) scale(.95648)"/><path d="M53.737 63.718a3.237 3.237 0 0 1-6.475 0 3.237 3.237 0 1 1 6.475 0zM65.321 63.718a3.237 3.237 0 1 1-6.474 0 3.237 3.237 0 1 1 6.474 0z" stroke="#000" stroke-linecap="round" stroke-width="1.55810592"/><g><path d="M46.23 76.96c-.039-.073-.086-.143-.13-.214-1.047-1.704-3.266-2.92-4.658-2.985-1.856-.085-3.744 2.56-4.225 5.252-.06.332-.097.667-.116 1l-8.982-9.116-5.675 2.963.06.343L8.1 81.723l3.384 25.063c6.49 3.501 12.997 7.081 19.483 10.627l12.862-6.716.356.261 5.667-2.96-1.086-3.162c.841.173 1.668.16 2.428-.1 3.534-1.214 4.805-4.503 3.191-7.494-.052-.096-.102-.194-.16-.29-1.234-2.035-6.32-3.764-9.78-4.742l-2.066-6.016c2.99-3.244 4.356-5.239 4.317-7.59-.009-.57-.187-1.132-.466-1.644zm-3.732 2.788c-.118.22-.224.423-.304.606-.337.765-.97 2.013-1.589 3.21l-.224-.22c.078-.447.178-.855.302-1.116a8.44 8.44 0 0 1 1.815-2.48zm7.731 18.98c.203.36.37.734.493 1.12-.21.105-.442.204-.7.301a9.128 9.128 0 0 1-2.669.546l-1.985-5.775c.486.216.85.385.94.457 1.735.733 3.12 1.933 3.921 3.351z" stroke="#000" stroke-width="2.84166"/><path d="M23.246 73.818l5.324 24.046-17.085 8.921L8.1 81.727z" fill="#009dff"/><path d="M302.06 226.32l-.307 10.356 18.488 6.674.151-11.43-18.335-5.6z" fill-rule="evenodd" fill="url(#f)" transform="matrix(.11973 .2293 -.2293 .11973 27.478 -6.75)"/><path d="M28.116 70.895l5.416 24.223-6.555 3.423-4.534-24.683z" stroke="#0075ff" fill="#0075ff" stroke-width=".25867"/><path d="M11.507 106.775l19.46 10.64 15.34-8.01-17.055-11.896z" fill="#008cff"/><path d="M49.855 108L33.456 95.16l-6.427 3.355 17.152 12.448z" fill="#0064ff"/><path d="M41.946 84.924l7.91 23.075-16.399-12.84-5.34-24.263z" fill="#007cff"/><path d="M30.422 80.173L45.35 94.657l1.432 4.26L31.05 84.875 9.992 95.556l-.684-4.8z" fill="#ccc"/><path d="M34.863 77.79l5.66 23.3-20.45 10.578 4.673 2.543 19.566-10.303-6.079-22.698-3.37-3.42z" fill-rule="evenodd" fill="#ccc"/><path d="M43.21 79.149s-1.587 1.09-2.53 3.08c-.449.945-.57 3.764-.57 3.764l-.808 1.922s-1.043-1.007-1.28-1.66c-.237-.652-.94-4.135-.883-5.613.056-1.478 1.287-4.708 1.752-5.106.464-.398 1.545-1.677 2.694-1.656 1.15.021 2.058.748 2.247 1.012.19.263.208 3.668.208 3.668l-.83.589z" fill-rule="evenodd" fill="#999"/><path d="M38.261 88.016s.898 1.819-.1 2.546-2.685.359-3.883 3.592c.629.554 1.351.343 1.351.343l-.033 2.115s1.563-2.33 2.466-2.696c.903-.365 2.099-.606 2.193-1.372.095-.766-1.142-3.822-1.142-3.822l-.852-.706z" fill-rule="evenodd" fill="#b3b3b3"/><path d="M46.102 76.752c-1.048-1.704-3.27-2.922-4.662-2.986-1.856-.086-3.74 2.56-4.221 5.252-.66 3.69 1.319 7.664 1.319 7.664.06-.032.631 2.94 3.09.329 3.532-3.748 5.11-5.859 5.07-8.403-.011-.651-.247-1.289-.596-1.857zm-2.976-1.594c1.496 1.501-.355 3.894-.932 5.204-.71 1.612-3.022 5.951-3.022 5.951l-.386.837s-.147-.27-.918-3.333c-.772-3.063.05-5.986.17-6.152 1.08-2.628 3.208-4.348 5.088-2.507z" fill-rule="evenodd" fill="#ccc"/><path d="M37.352 82.943s-1.766-1.276-2.447-1.934c-.682-.659-2.64-5.216-2.64-5.216l.45 2.64-1.641.096s1.697 3.328 2.491 4.447c1.172 1.651 2.875 1.458 4.224 3.881.81 1.453 1.047 2.328 1.047 2.328s.554-2.825-1.484-6.242z" fill-rule="evenodd" fill="#b3b3b3"/><path d="M42.04 91.409c.095-.419-.109-3.691-.46-4.366-.353-.674-2.216-1.105-2.853-.383-.637.723.06 3.402.444 4.137.51.568 1.028 1.055 1.666 1.549.43-.224.975-.347 1.204-.938z" fill-rule="evenodd" fill="#e6e6e6"/><path d="M39.486 91.339s.329 2.516.805 3.923c.476 1.407 1.411 4.284 1.995 4.807.583.523 3.162 3.678 4.189 3.763 1.027.084-.464-3.07-.464-3.07s-2.01-1.174-2.729-2.351c-.718-1.177-1.732-5.2-1.732-5.2l-1.799-1.959-.265.087z" fill-rule="evenodd" fill="#999"/><path d="M39.96 91.555l1.529 1.737s4.462 1.809 4.816 2.09c2.523 1.067 4.314 3.108 4.628 5.396 0 0 2.374-1.499 2.36-2.319-.015-.82-.705-2.736-.705-2.736s-2.886-1.572-3.32-1.709c-.432-.136-6.661-2.15-6.661-2.15l-2.198-.5-.666.019.218.172z" fill-rule="evenodd" fill="#999"/><path d="M54.222 96.954c-1.86-3.065-12.475-5.437-13.073-5.59-.597-.154-1.763-.25-1.7-.23 0 0 .306 4.88 2.292 8.188 1.986 3.309 6.28 6.505 9.453 5.415 3.649-1.252 4.887-4.718 3.028-7.783zm-2.53-1.427c.754.969 1.968 3.253-1.667 4.628-2.25.851-6.403 1.085-8.2-1.96-1.797-3.046-2.04-6.812-1.979-6.792 0 0 7.87 2.223 8.14 2.342.268.118 2.766.712 3.705 1.782z" fill-rule="evenodd" fill="#ccc"/></g><g fill-rule="evenodd" stroke="#000" stroke-width="1.629"><path d="M17.382 68.978c14.994 5.392-4.414 29.341 11.786 50.238 2.995 3.862-18.035.651-25.47-20.752-7.23-20.815-.353-33.516 13.684-29.486z" fill="#fff" stroke-width="1.55810592"/><path d="M51.639 328.16c15.677 5.637-13.877 33.276 12.323 52.523 7.373 5.416-18.856.681-26.629-21.696-7.559-21.762-.369-35.041 14.306-30.827z" fill="url(#g)" transform="translate(-32.01 -244.9) scale(.95648)"/></g><g><path d="M64.68 101.324l22.018-4.612.116.646-21.812 5.004z" fill="#75c800"/><path d="M82.11 74.365c.07-.05.145-.096.217-.142 1.733-1.124 4.342-1.274 5.668-.716 1.769.744 2.356 4.047 1.61 6.772a8.793 8.793 0 0 1-.336.984l12.42-4.515 3.978 5.281-.208.293 10.092 13.403-14.275 21.868c-7.605.385-15.261.837-22.883 1.264l-9.014-11.97-.447.087-3.972-5.275 2.416-2.467c-.86-.212-1.626-.59-2.22-1.171-2.757-2.7-2.482-6.33.35-8.404.092-.066.182-.135.279-.199 2.053-1.35 7.562-.706 11.224-.082l4.595-4.693c-1.35-4.352-1.737-6.817-.658-8.992.261-.528.677-.974 1.164-1.326zm2.244 4.256c.012.257.02.494.015.7-.026.863.01 2.307.057 3.698l.307-.106c.125-.452.213-.876.213-1.174a8.716 8.716 0 0 0-.592-3.118zM68.723 92.89c-.35.246-.67.52-.957.825.15.192.322.387.519.592a9.427 9.427 0 0 0 2.247 1.693l4.414-4.504c-.55-.015-.964-.019-1.08.008-1.943-.085-3.767.419-5.143 1.386z" stroke="#000" stroke-width="2.93445"/><path d="M104.647 81.388l-15.634 20.06 11.56 15.858 14.688-21.823z" fill="#81dc00"/><path d="M854.18 706.88l-7.638 3.704 2.164 15.957 8.359-4.224-2.886-15.44z" fill-rule="evenodd" fill="url(#h)" transform="matrix(-.29442 -.1401 -.1401 .29442 459.167 13.012)"/><path d="M101.946 76.586L85.687 97.054l4.686 5.898 15.665-21.011z" fill="#6bb800"/><path d="M101.258 117.573L78.39 118.86l-10.75-14.275 21.182-3.525z" fill="#87e600"/><path d="M64.883 101.644l21.007-4.722 4.518 6.061-21.517 4.079z" fill="#71c200"/><path d="M82.57 83.694l-17.663 17.96 21.04-4.65 15.744-20.254z" fill="#75c800"/><path d="M95.421 84.378L75.076 91.26l-3.225 3.337 20.9-6.113 14.895 19.303 2.768-4.173z" fill="#ccc"/><path d="M92.34 80.186L76.723 99.4l14.374 18.937-5.485.298-13.673-18.29 15.739-18.467 4.66-1.692z" fill-rule="evenodd" fill="#ccc"/><path d="M83.953 77.747s.996 1.72.992 3.996c-.001 1.08-1.138 3.762-1.138 3.762l-.1 2.15s1.42-.476 1.93-.98c.51-.502 2.71-3.439 3.314-4.842.603-1.403.888-4.96.632-5.538-.257-.577-.698-2.25-1.778-2.74-1.081-.49-2.25-.215-2.544-.053-.293.161-1.822 3.327-1.822 3.327l.514.918z" fill-rule="evenodd" fill="#999"/><path d="M84.635 88.211s-1.644 1.298-1.036 2.42 2.344 1.526 2.026 5.072a1.567 1.567 0 0 1-1.411-.28l-.908 1.987s-.424-2.866-1.104-3.608-1.687-1.497-1.436-2.253c.252-.755 2.762-3.057 2.762-3.057l1.107-.28z" fill-rule="evenodd" fill="#b3b3b3"/><path d="M82.323 74.228c1.733-1.124 4.345-1.274 5.672-.716 1.768.744 2.352 4.047 1.605 6.771-1.022 3.734-4.63 6.56-4.63 6.56-.042-.057-1.893 2.462-3.028-1.064-1.63-5.062-2.165-7.73-.998-10.084.299-.603.802-1.092 1.38-1.467zm3.482-.166c-2.061.737-1.396 3.789-1.44 5.267-.053 1.818.178 6.89.178 6.89l-.012.951s.257-.186 2.335-2.7c2.08-2.514 2.609-5.604 2.57-5.813.161-2.93-1.06-5.477-3.63-4.595z" fill-rule="evenodd" fill="#ccc"/><path d="M87.734 83.884s2.213-.407 3.14-.718c.929-.312 4.776-3.693 4.776-3.693l-1.59 2.263 1.487.817s-3.059 2.351-4.296 3.042c-1.826 1.02-3.328.084-5.661 1.744-1.4.996-2.009 1.706-2.009 1.706s.737-2.88 4.153-5.161z" fill-rule="evenodd" fill="#b3b3b3"/><path d="M79.606 89.696c.098-.431 1.74-3.393 2.367-3.865.628-.473 2.557-.048 2.83.909.273.956-1.565 3.145-2.25 3.66-.727.303-1.427.527-2.24.705-.301-.4-.756-.757-.707-1.408z" fill-rule="evenodd" fill="#e6e6e6"/><path d="M82.019 90.765s-1.423 2.2-2.49 3.301c-1.07 1.1-3.218 3.369-3.994 3.598-.777.228-4.58 2.026-5.576 1.649-.996-.377 1.794-2.656 1.794-2.656s2.396-.203 3.588-.982c1.192-.779 3.923-4.08 3.923-4.08l2.546-1.028.209.198z" fill-rule="evenodd" fill="#999"/><path d="M81.478 90.757l-2.196.942s-4.964-.294-5.418-.189c-2.826-.124-5.402.984-6.71 2.978 0 0-1.548-2.45-1.171-3.21.377-.758 1.871-2.238 1.871-2.238s3.388-.186 3.853-.12c.464.065 7.166.95 7.166.95l2.271.51.613.313-.28.064z" fill-rule="evenodd" fill="#999"/><path d="M65.786 89.464c3.093-2.033 14.045.466 14.67.588.625.122 1.754.55 1.688.54 0 0-2.45 4.415-5.771 6.618-3.32 2.204-8.742 3.28-11.218.855-2.846-2.787-2.463-6.568.63-8.6zm2.993-.208c-1.134.569-3.28 2.16-.5 5.055 1.721 1.793 5.489 3.853 8.516 1.81 3.027-2.042 4.925-5.445 4.86-5.455 0 0-8.327-1.419-8.63-1.428-.303-.009-2.896-.563-4.246.018z" fill-rule="evenodd" fill="#ccc"/></g><g fill-rule="evenodd" stroke="#000" stroke-width="1.629"><path d="M97.775 68.978c-14.995 5.392 4.414 29.341-11.787 50.238-2.994 3.862 18.035.651 25.47-20.752 7.23-20.815.353-33.516-13.683-29.486z" fill="#fff" stroke-width="1.55810592"/><path d="M135.69 328.16c-15.677 5.637 13.877 33.276-12.323 52.523-7.373 5.416 18.856.681 26.629-21.696 7.559-21.762.369-35.041-14.306-30.827z" fill="url(#i)" transform="translate(-32.01 -244.9) scale(.95648)"/></g><g><path d="M62.325.347c-17.388 2.088-34.705 13.52-40.23 32.22-2.35 1.844-4.885 4.046-5.956 7.395a1.924 1.703-3.615 0 0-.009.022c-.789 2.634-.925 5.566.395 7.913.66 1.174 1.839 2.222 3.443 2.59s3.394.066 5.282-.773a1.924 1.703-3.615 0 0 .232-.116c12.908-7.854 25.197-8.849 35.653-7.306 10.457 1.542 19.007 5.682 24.05 8.237 1.65.837 3.916 2.253 6.905 2.51.008 0 .016-.003.023-.002.022.001.039.012.06.014l-.001-.01c2.343.272 4.36-.023 5.924-.85a6.233 6.233 0 0 0 2.248-2.036c.039 5.862 5.355 10.632 12.01 10.647 6.752.015 12.373-4.85 12.494-10.834.122-5.982-5.285-10.887-12.039-10.902a13.837 13.837 0 0 0-2.306.207c-3.058-6.094-6.117-12.104-8.969-18.669l-.015-.03C95.746 6.525 82.07-.098 67.76 0c-1.806.012-3.62.128-5.436.346zm36.607 38.395c1.593 1.544 3.05 3.16 4.101 4.573-.628.703-1.19 1.452-1.614 2.279a8.439 8.439 0 0 0-1.66-4.413 17.913 17.913 0 0 0-.827-2.44z"/><path d="M113.86 288.39c162.59-145.81 306.26-2.995 345.07 48.611 13.353 16.63 14.73 56.664-25.085 51.351-11.381-.973-21.218-7.448-29.639-12.197-48.48-27.33-167.54-90.7-292.06-3.8-30.351 15.43-37.275-16.72-31.139-41.54 5.058-19.09 19.699-30.59 32.859-42.43z" stroke="#d3d3d3" stroke-width="1.837" fill="#e2e2e2" transform="matrix(.21145 .00048 -.0038 .18734 2.113 -21.613)"/><path d="M67.747 1.702c-18.378.126-38.282 11.562-43.968 31.785.439-.34.877-.678 1.309-1.016 34.936-27.238 64.776-.42 72.789 9.267.036.04.068.087.103.129-.996-4.11-3.06-6.068-3.664-7.32-2.598-5.374 9.01 4.788 11.56 9.567l4.505-.874c-3.59-7.232-7.262-14.227-10.655-22.037C94.22 7.762 81.406 1.607 67.747 1.702z" fill="#e72f31"/><path d="M529.11 349.51c0 22.683-18.388 41.071-41.071 41.071s-41.071-18.388-41.071-41.071 18.388-41.071 41.071-41.071 41.071 18.388 41.071 41.071z" transform="matrix(.2519 .00057 -.00452 .22317 -8.77 -28.343)" stroke="#d3d3d3" stroke-width="1.542" fill="url(#j)"/><path d="M76.34 16.746c8.17 4.46 12.057 11.163 18.325 16.618l-.167.378c-8.36-4.758-6.52-11.065-25.078-14.273-9.727-1.509-6.003-3.906-1.625-4.619 3.705-.591 5.697.35 8.544 1.896z" fill="#d32a31"/><path d="M677.14 507.36c0 18.935-15.35 34.286-34.286 34.286-18.935 0-34.286-15.35-34.286-34.286 0-18.935 15.35-34.286 34.286-34.286 18.935 0 34.286 15.35 34.286 34.286z" transform="matrix(.21145 .00048 -.0038 .18734 -21.72 -45.947)" filter="url(#k)" fill="#fff"/><path d="M258.53 247.28c-38.88.686-82.016 15.31-129.56 57.938-.012.01-.02.02-.031.031-13.83 12.441-23.067 20.421-26 31.125-1.373 5.665-1.052 11.337-.563 15.375 66.122-44.903 132.99-51.603 187.97-42.625 55.856 9.121 100.34 33.433 124.97 47.312a22.619 22.619 0 0 1 .032.032c9.516 5.366 16.428 9 20.437 9.343a22.619 22.619 0 0 1 1.063.125c5.92.79 7.443-.145 7.5-.187 0-.069-.026-.072.094-.531.678-2.614-1.76-12.361-3.125-14.062a22.619 22.619 0 0 1-.438-.563c-23.9-31.77-96.78-104.83-182.35-103.32z" filter="url(#l)" fill="#fff" transform="matrix(.21145 .00048 -.0038 .18734 2.113 -21.613)"/></g></svg>