<svg xmlns="http://www.w3.org/2000/svg" xmlns:xlink="http://www.w3.org/1999/xlink" viewBox="0 0 759.25 825.45" version="1"><defs><radialGradient id="b" xlink:href="#a" gradientUnits="userSpaceOnUse" cy="1378.9" cx="1.304" gradientTransform="matrix(.00788 1.0781 -.99997 .0073 1378.1 1362.4)" r="15.714"/><radialGradient id="h" gradientUnits="userSpaceOnUse" cy="1108.4" cx="909.18" gradientTransform="matrix(0 .80275 -.74196 0 1737.8 380.5)" r="32.5"><stop offset="0" stop-color="#fff"/><stop offset="1" stop-color="#afc6e9" stop-opacity="0"/></radialGradient><radialGradient id="g" gradientUnits="userSpaceOnUse" cy="735.61" cx="852.06" gradientTransform="matrix(.00847 .81589 -.99995 .01038 1616.2 32.955)" r="131.32"><stop offset="0" stop-color="#5f8dd3"/><stop offset="1" stop-color="#214478"/></radialGradient><radialGradient id="f" gradientUnits="userSpaceOnUse" cy="1108.4" cx="909.18" gradientTransform="matrix(0 .80275 -.74196 0 1737.8 380.5)" r="32.5"><stop offset="0" stop-color="#fff"/><stop offset="1" stop-color="#aade87" stop-opacity="0"/></radialGradient><radialGradient id="e" gradientUnits="userSpaceOnUse" cy="735.61" cx="852.06" gradientTransform="matrix(.00847 .81589 -.99995 .01038 1616.2 32.955)" r="131.32"><stop offset="0" stop-color="#5aa02c"/><stop offset="1" stop-color="#2d5016"/></radialGradient><radialGradient id="d" gradientUnits="userSpaceOnUse" cy="1108.4" cx="909.18" gradientTransform="matrix(0 .80275 -.74196 0 1737.8 380.5)" r="32.5"><stop offset="0" stop-color="#fff"/><stop offset="1" stop-color="#f55" stop-opacity="0"/></radialGradient><radialGradient id="c" gradientUnits="userSpaceOnUse" cy="735.61" cx="852.06" gradientTransform="matrix(.00847 .81589 -.99995 .01038 1616.2 32.955)" r="131.32"><stop offset="0" stop-color="#f55"/><stop offset="1" stop-color="maroon"/></radialGradient><linearGradient id="a"><stop offset="0" stop-color="red"/><stop offset="1" stop-color="#500"/></linearGradient></defs><path d="M532.186 40.47s-13.77 31.865-33.893 47.707c-17.949 14.17-31.7 22.005-31.7 22.005s10.815 18.77 12.059 35.325c1.76 23.683-22.678 35.108-22.678 35.108s20.218 8.04 20.194 38.381c.008 30.391-21.401 33.648-21.401 33.648s30.56-3.5 42.51 24.224c12.17 28.228 36.232 31.954 36.232 31.954s-12.65-13.656.709-36.44c17.38-29.722 38.093-29.237 38.093-29.237s-17.027-9.86-14.973-37.911c2.127-28.598 27.398-42.777 27.398-42.777s-16.828 6.285-23.78-21.47c-6.954-27.755 21.005-35.546 21.005-35.546s-19.501 2.9-39.336-16.641c-19.835-19.541-9.167-49.786-10.439-48.33z" fill-rule="evenodd" fill="#445016"/><path d="M536.518 39.428l7.85.156c-10.072 17.463-19.106 35.77-23.962 55.426-2.413 10.285-3.543 20.827-5.901 31.148-1.777 9.45-2.048 19.085-3.213 28.646-1.513 13.009-2.763 26.136-2.54 39.257-.247 8.832-1.495 17.657-1.187 26.493.019 4.864.43 9.691.35 14.546-.256 2.6 1.412 4.834 1.765 7.333.792 3.94.924 8.014 1.756 11.928.836 4.629 1.602 9.302 3.383 13.615 1.834 3.92 3.463 7.971 4.785 12.147 1.629 4.768 3.701 9.469 5.088 14.32.235 1.785.984 3.387 1.967 4.839-.298 1.05.561 1.936.573 2.933-.785-1.58-1.197-3.395-2.198-4.908-1.09-3.104-2.579-6.17-4.621-8.81-3.475-5.169-6.258-10.85-7.921-16.886-1.394-4.704-2.74-9.436-4.53-14.03-1.667-5.031-2.434-10.35-2.34-15.643-.092-3.023-.408-6.048-1.572-8.818-2.614-8.944-2.125-18.432-1.037-27.585.95-8.349 1.821-16.718 1.276-25.117-.261-9.225-.157-18.54 1.413-27.713 1.615-9.991 2.252-20.147 2.828-30.264 1.43-11.02 5.238-21.55 7.202-32.48 3.055-14.135 5.996-28.34 9.977-42.278l2.3-8.564c2.815.069 5.661.19 8.509.31z" fill="#abc837"/><path d="M524.472 52.611s-29.838 7.699-51.943 13.55c-22.108 5.853-37.328-9.82-37.328-9.82s-7.246 20.464-18.993 32.184c-16.842 16.76-41.429 5.555-41.429 5.555s7.058 20.591-16.023 40.327c-23.05 19.787-39.483 5.605-39.483 5.605s16.201 12.681 2.926 39.858c-13.523 27.62-33.565 22.835-33.565 22.835s34.077 16.913 60.077 12.234c33.86-6.105 52.92 1.098 52.92 1.098s-3.587-19.364 19.059-36.027c23.108-17.029 50.313-6.99 50.313-6.99s-15.726-8.755.833-32.075 40.653-7.14 40.653-7.14-14.873-12.955-12.921-40.724 26.849-40.42 24.904-40.47z" fill-rule="evenodd" fill="#2d5016"/><path d="M531.307 29.9c-1.89-2.45-3.747-4.851-5.637-7.303-8.669 20.44-18.896 40.367-33.217 57.242-7.549 8.756-16.266 16.393-23.853 25.102-7.296 7.592-15.815 13.885-23.576 20.984-10.707 9.551-21.592 19.002-33.59 27.01-7.798 5.761-14.843 12.476-23.06 17.715-4.344 3.057-9.017 5.678-13.282 8.828-2.152 1.874-5.357 1.695-7.864 2.935-4.127 1.7-7.846 4.143-11.974 5.843-4.724 2.08-9.46 4.312-14.595 5.364a113.03 113.03 0 0 0-14.3 3.096c-5.461 1.475-11.09 2.484-16.445 4.25-1.729.887-3.749 1.171-5.74 1.15-.705.952-2.112.702-3.012 1.348 1.994-.268 3.88-1.041 5.923-1.053 3.594-.93 7.345-1.457 11.169-1.172 7.088-.003 14.161-.929 20.737-3.186 5.24-1.62 10.434-3.356 15.842-4.51a49.717 49.717 0 0 0 15.69-7.639c2.745-1.822 5.704-3.422 9.042-4.045 9.895-3.155 18.089-9.598 25.6-16.324 6.807-6.133 13.74-12.202 21.658-16.964 8.513-5.572 16.829-11.52 23.975-18.729 7.908-7.767 16.575-14.727 25.264-21.63 8.926-8.272 15.752-18.431 24.213-27.124 10.634-11.728 21.34-23.43 31.112-35.897 2.041-2.52 4.115-4.99 6.157-7.51-2.09-2.61-4.18-5.221-6.237-7.78z" fill="#abc837"/><path d="M534.81 32.058s24.28-5.159 42.328-8.853C595.153 19.46 598.175.758 598.175.758s14.781 14.018 28.5 19.106c19.637 7.265 31.221-11.377 31.221-11.377s4.993 19.613 30.357 26.955c25.369 7.338 29.905-10.61 29.905-10.61s-5.1 16.658 17.073 33.848c22.571 17.51 23.614 39.427 23.614 39.427s-10.32-14.352-30.516-8.214c-26.256 8.068-27.616 26.284-27.616 26.284s-6.813-17.306-30.4-22.267c-24.089-5.072-38.036 13.643-38.036 13.643s6.661-13.209-15.915-25.983c-22.613-12.824-31.485 9.752-31.485 9.752s4.067-16.357-10.57-38.424c-14.67-22.117-40.815-20.072-39.497-20.84z" fill-rule="evenodd" fill="#677821"/><path d="M525.58 40.74c-.262 2.532-.49 5.115-.719 7.699 16.522-5.732 33.728-10.18 51.642-10.276 9.381.112 18.81 1.483 28.179 1.603 8.586.548 17.166 2.604 25.752 3.724 11.669 1.593 23.418 3.492 35.026 6.844 7.855 1.874 15.77 2.706 23.604 5.166 4.277 1.143 8.531 2.732 12.827 3.792 2.301.326 4.13 2.53 6.29 3.445 3.434 1.754 6.978 2.792 10.386 4.561 3.982 1.906 8.041 3.763 11.674 6.536 3.305 2.767 6.714 5.325 10.25 7.587 4.084 2.773 7.99 5.874 12.144 8.387 1.548.662 2.906 1.803 4.066 3.07.958-.037 1.66 1.02 2.528 1.256-1.328-1.16-2.87-1.97-4.082-3.276-2.68-1.875-5.19-4.002-7.326-6.655-4.207-4.63-8.938-8.71-14.119-11.787-4.008-2.463-8.051-4.903-11.919-7.742a43.55 43.55 0 0 0-13.604-6.022c-2.666-.808-5.313-1.845-7.65-3.653-7.634-4.666-16.088-6.445-24.322-7.575-7.474-1.041-14.993-2.197-22.335-4.684-8.162-2.467-16.422-4.583-24.716-5.245-9.017-.774-18.084-2.592-27.072-4.388-9.933-1.266-19.65-.017-29.522-.675-12.866-.399-25.769-.918-38.52-.315-2.636.033-5.24.116-7.845.2-.217 2.79-.434 5.582-.618 8.423z" fill="#abc837"/><path d="M18.571 1376.6a15.714 15.714 0 1 1-31.428 0 15.714 15.714 0 1 1 31.428 0z" transform="matrix(-.50967 .32499 .32499 .50967 84.96 -671.292)" fill="url(#b)"/><path d="M18.571 1376.6a15.714 15.714 0 1 1-31.428 0 15.714 15.714 0 1 1 31.428 0z" transform="matrix(-.50967 .32499 .32499 .50967 73.004 -649.724)" fill="url(#b)"/><path d="M18.571 1376.6a15.714 15.714 0 1 1-31.428 0 15.714 15.714 0 1 1 31.428 0z" transform="matrix(-.50967 .32499 .32499 .50967 93.604 -629.91)" fill="url(#b)"/><path d="M18.571 1376.6a15.714 15.714 0 1 1-31.428 0 15.714 15.714 0 1 1 31.428 0z" transform="matrix(-.50967 .32499 .32499 .50967 62.93 -670.635)" fill="url(#b)"/><g><path d="M1004.1 773.56a131.32 131.32 0 1 1-262.65 0 131.32 131.32 0 1 1 262.65 0z" transform="translate(-712.557 -245.282)" fill="url(#c)"/><path d="M160.203 379.123c-15.59 0-30.54 2.72-44.43 7.72v14.16c13.89-5 28.84-7.72 44.43-7.72 15.6 0 30.6 2.72 44.4 7.72v-14.16c-13.8-5-28.8-7.72-44.4-7.72zM160.203 331.673c-15.35 0-27.85 12.46-27.85 27.84 0 6.83 2.48 13.09 6.57 17.94 6.93-1.14 14.05-1.72 21.28-1.72 7.3 0 14.4.59 21.3 1.72 4.1-4.85 6.6-11.11 6.6-17.94 0-15.38-12.5-27.84-27.9-27.84z" fill="maroon"/><path d="M947.86 1116.3a32.5 32.5 0 1 1-65 0 32.5 32.5 0 1 1 65 0z" transform="matrix(1.9014 0 0 2.0568 -1547.967 -1799.377)" fill="url(#d)"/><path fill="maroon" d="M157.193.003h6.06v326.25h-6.06z"/></g><g><path d="M1004.1 773.56a131.32 131.32 0 1 1-262.65 0 131.32 131.32 0 1 1 262.65 0z" transform="translate(-504.467 -359.431)" fill="url(#e)"/><path d="M368.293 264.973c-15.6 0-30.5 2.73-44.4 7.72v14.16c13.9-5 28.8-7.72 44.4-7.72s30.6 2.72 44.5 7.72v-14.16c-13.9-4.99-28.9-7.72-44.5-7.72zM368.293 217.523c-15.3 0-27.8 12.46-27.8 27.84 0 6.83 2.4 13.09 6.5 17.94 7-1.13 14.1-1.72 21.3-1.72 7.3 0 14.4.59 21.3 1.72 4.1-4.85 6.6-11.11 6.6-17.94 0-15.38-12.5-27.84-27.9-27.84z" fill="#2d5016"/><path d="M947.86 1116.3a32.5 32.5 0 1 1-65 0 32.5 32.5 0 1 1 65 0z" transform="matrix(1.9014 0 0 2.0568 -1339.877 -1913.517)" fill="url(#f)"/><path fill="#2d5016" d="M365.293 100.133h6.06v111.96h-6.06z"/></g><g><path d="M1004.1 773.56a131.32 131.32 0 1 1-262.65 0 131.32 131.32 0 1 1 262.65 0z" transform="translate(-361.607 -79.427)" fill="url(#g)"/><path d="M511.193 544.983c-15.6 0-30.6 2.7-44.5 7.7v14.2c13.9-5 28.9-7.7 44.5-7.7s30.5 2.7 44.4 7.7v-14.2c-13.9-5-28.8-7.7-44.4-7.7zM511.193 497.523c-15.4 0-27.9 12.46-27.9 27.86 0 6.8 2.5 13.1 6.6 17.9 6.9-1.1 14-1.7 21.3-1.7 7.2 0 14.3.6 21.3 1.7 4.1-4.8 6.5-11.1 6.5-17.9 0-15.4-12.4-27.86-27.8-27.86z" fill="#214478"/><path d="M947.86 1116.3a32.5 32.5 0 1 1-65 0 32.5 32.5 0 1 1 65 0z" transform="matrix(1.9014 0 0 2.0568 -1197.017 -1633.517)" fill="url(#h)"/><path fill="#214478" d="M508.093.133h6.06v491.96h-6.06z"/></g><g><path d="M165.405 42.818s28.744 19.464 54.228 22.002c22.752 2.297 38.559 1.512 38.559 1.512s.973 21.64 8.825 36.268c11.25 20.914 37.997 17.409 37.997 17.409s-12.724 17.65 3.609 43.22c16.332 25.629 36.135 16.864 36.135 16.864s-27.649 13.48-22.819 43.28c4.914 30.344-13.37 46.423-13.37 46.423s3.324-18.315-20.19-30.344c-30.635-15.716-47.838-4.171-47.838-4.171s9.055-17.47-7.758-40.016c-17.169-22.97-46.1-21.338-46.1-21.338s17.568-3.747 8.508-30.888c-9.06-27.14-36.823-18.678-36.823-18.678s18.002-8.04 24.22-35.18c6.218-27.141-19.038-46.907-17.183-46.363z" fill-rule="evenodd" fill="#445016"/><path d="M161.193 44.268l-6.536 4.353C172.54 57.929 190 68.508 204.662 82.47c7.563 7.374 14.184 15.656 21.722 23.09 6.578 7.013 11.987 14.992 18.11 22.427 8.27 10.155 16.382 20.552 23.248 31.734 4.957 7.314 10.754 14.084 15.245 21.7 2.6 4.111 4.848 8.403 7.526 12.453 1.614 2.055 1.408 4.836 2.454 7.133 1.45 3.747 3.53 7.253 4.932 11 1.784 4.353 3.651 8.705 4.467 13.3.563 4.291 1.366 8.583 2.497 12.814 1.19 4.896 1.97 9.974 3.409 14.81.762 1.632.991 3.385.943 5.137.816.726.568 1.935 1.094 2.781-.187-1.753-.816-3.506-.786-5.32-.75-3.203-1.142-6.588-.84-9.913.151-6.226-.556-12.512-2.4-18.496-1.354-4.715-2.762-9.43-3.723-14.266-1.3-5.138-3.512-10.034-6.438-14.447-1.547-2.599-2.907-5.319-3.415-8.28-2.605-8.947-8.118-16.684-13.957-23.817-5.29-6.528-10.524-13.117-14.58-20.492-4.74-7.918-9.835-15.716-16.091-22.607-6.734-7.556-12.731-15.776-18.656-23.997-7.13-8.523-16.003-15.354-23.535-23.514-10.176-10.276-20.293-20.673-31.143-30.284l-6.544-5.984c-2.336 1.571-4.672 3.203-7.008 4.835z" fill="#abc837"/><path d="M178.438 48.907s29.297-9.55 51.082-16.502c21.787-6.951 26.193-28.35 26.193-28.35s17.113 13.36 33.319 16.926c23.211 5.077 37.918-17.59 37.918-17.59s5.12 21.156 35.192 25.387c30.073 4.292 36.305-16.502 36.305-16.502s-6.843 19.404 18.962 35.18c26.252 16.019 40.578 1.21 40.578 1.21s-19.64 32.58-44.078 42.615c-31.831 13.056-44.03 29.377-44.03 29.377s-7.386-18.255-35.44-20.13c-28.64-1.933-46.181 21.157-46.181 21.157s8.553-15.837-17.947-26.596-38.116 15.837-38.116 15.837 5.575-18.92-11-41.286-44.37-19.645-42.757-20.733z" fill-rule="evenodd" fill="#2d5016"/><path d="M160.464 33.433c.276-3.083.55-6.105.826-9.188 18.299 12.573 37.636 23.876 58.784 30.405 11.073 3.324 22.529 5.077 33.608 8.341 10.234 2.479 20.8 3.204 31.16 5.017 14.164 2.297 28.423 4.413 42.846 4.715 9.671.665 19.222 2.54 28.966 2.54 5.307.24 10.657-.061 15.946.301 2.823.423 5.428-1.45 8.209-1.753 4.394-.785 8.843-.725 13.237-1.51 5.102-.787 10.295-1.452 15.19-3.325a113.031 113.031 0 0 1 13.722-5.078c5.398-1.693 10.687-3.869 16.152-5.259 1.934-.181 3.79-1.027 5.458-2.116 1.106.424 2.158-.544 3.264-.483-1.825.846-3.832 1.209-5.561 2.297-3.53 1.148-6.976 2.72-10.046 5.017-5.978 3.808-12.44 6.83-19.198 8.463-5.29 1.45-10.603 2.78-15.783 4.714a49.718 49.718 0 0 1-17.336 1.995c-3.294-.06-6.65.182-9.799 1.45-10.04 2.66-20.413 1.633-30.362 0-9.037-1.51-18.146-2.9-27.383-2.659-10.173-.12-20.382-.665-30.284-2.901-10.844-2.297-21.893-3.506-32.931-4.655-11.974-2.176-23.191-7.072-34.999-9.852-15.272-4.171-30.59-8.282-45.533-13.54-3.076-1.028-6.152-1.995-9.229-3.023.36-3.325.718-6.65 1.076-9.913z" fill="#abc837"/><path d="M158.67 37.136s-23.246 8.704-40.45 15.293c-17.203 6.528-29.806-7.617-29.806-7.617S83.488 64.58 74.656 76.245c-12.651 16.683-32.441 7.193-32.441 7.193s6.334 19.222-11.105 39.049C13.665 142.313.192 129.62.192 129.62s13.256 11.303 3.802 37.719c-9.617 26.898 1.287 45.94 1.287 45.94s.986-17.651 21.314-23.333c26.476-7.314 37.417 7.314 37.417 7.314s-3.56-18.255 13.66-35.12c17.585-17.227 39.407-8.946 39.407-8.946s-12.719-7.556-.55-30.465c12.17-22.97 31.79-8.705 31.79-8.705s-12.224-11.606-11.746-38.081c.477-26.537 23.621-38.868 22.098-38.807z" fill-rule="evenodd" fill="#677821"/><path d="M171.121 39.493a533.819 533.819 0 0 1 4.745 6.105c-17.012 4.05-33.912 9.55-49.067 19.102-7.85 5.138-15.064 11.364-22.898 16.502-6.946 5.077-13.075 11.424-19.712 16.985-8.982 7.617-17.868 15.535-25.853 24.602-5.616 5.803-11.842 10.76-17.125 17.046-2.992 3.264-5.724 6.891-8.777 10.095-1.765 1.511-2.121 4.352-3.451 6.286-1.953 3.325-4.383 6.105-6.305 9.43-2.333 3.748-4.757 7.495-6.329 11.787-1.3 4.11-2.798 8.1-4.563 11.908-1.953 4.534-3.579 9.249-5.73 13.6-.95 1.391-1.482 3.084-1.778 4.776-.828.484-.852 1.753-1.457 2.418.496-1.692 1.36-3.204 1.68-4.957 1.252-3.022 2.225-6.165 2.6-9.55 1.058-6.166 2.853-12.15 5.567-17.53 2.055-4.231 4.153-8.462 5.888-12.936a43.55 43.55 0 0 1 8.233-12.391c1.813-2.116 3.487-4.413 4.485-7.193 3.929-8.04 10.1-14.085 16.435-19.464 5.743-4.897 11.461-9.914 16.315-15.958 5.555-6.468 11.382-12.694 18.02-17.711 7.186-5.501 13.854-11.908 20.467-18.255 7.694-6.408 16.558-10.579 24.528-16.442 10.635-7.254 21.235-14.628 32.31-20.975 2.241-1.39 4.482-2.72 6.723-4.05a649.216 649.216 0 0 1 5.05 6.77z" fill="#abc837"/><path d="M18.571 1376.6a15.714 15.714 0 1 1-31.428 0 15.714 15.714 0 1 1 31.428 0z" transform="translate(159.817 -797.77) scale(.60447)" fill="url(#b)"/><path d="M18.571 1376.6a15.714 15.714 0 1 1-31.428 0 15.714 15.714 0 1 1 31.428 0z" transform="translate(181.494 -786.013) scale(.60447)" fill="url(#b)"/><path d="M18.571 1376.6a15.714 15.714 0 1 1-31.428 0 15.714 15.714 0 1 1 31.428 0z" transform="translate(174.777 -758.231) scale(.60447)" fill="url(#b)"/><path d="M18.571 1376.6a15.714 15.714 0 1 1-31.428 0 15.714 15.714 0 1 1 31.428 0z" transform="translate(178.746 -809.062) scale(.60447)" fill="url(#b)"/></g></svg>