<svg xmlns="http://www.w3.org/2000/svg" viewBox="0 0 250.14 260.44" version="1"><path d="M-499.069 386.721v-125h250v250h-250v-125z" fill="#fcfcfc"/><path d="M236.961 155.071c-5.59 5.35-8.04 12.36-7.18 20.55.67 6.45.14 6.96-4.15 3.95-3.99-2.81-12.49-4.55-15.19-3.11-1.77.95-2.03 1.7-1.46 4.3.38 1.73 1.18 3.93 1.78 4.89 1.56 2.49.25 3.23-3.44 1.94-7.33-2.56-10.82-.93-9.48 4.42.64 2.53 2.67 3.81 7.83 4.91 3.51.75 3.46 1.76-.25 5.55-3.22 3.3-3.61 5.26-1.94 9.69 1.72 4.53 5.97 8.3 10.15 8.96 4.45.72 4.71 1.52 1.24 3.79-1.4.92-3.07 2.83-3.71 4.24-1.06 2.31-.88 2.8 1.77 4.91l2.94 2.35-2.29 2.13c-2.85 2.66-4.16 6.01-4.17 10.75-.01 2.03-.44 4.35-.95 5.16-1.07 1.69-1.19 1.48-3.02-5.69-1.79-7-6.54-8.98-12.57-5.25-3.83 2.36-4.86 1.45-3.33-2.94 1.96-5.64-1.23-11.79-5.47-10.52-1.18.35-3.74 2.17-5.69 4.03-1.95 1.87-3.81 3.39-4.13 3.39s-.35-4.03-.07-8.96c.35-6.04.1-9.96-.75-12.02-1.74-4.2-6.54-8.02-10.09-8.02-1.6 0-2.92-.28-2.92-.63 0-.36 1.77-2.56 3.93-4.91 6.23-6.75 9.13-20.06 5.52-25.23-1.47-2.09-1.73-2.13-4.45-.72-4.13 2.13-6.73 1.86-9.59-1.01-2.04-2.04-2.38-3.11-1.87-5.87.57-3.04.37-3.43-2.02-4.03-3.52-.89-6.18-6.84-4.6-10.31 1.59-3.49 1.39-4.07-1.95-5.8l-3.04-1.57-1.48 3.56c-4.03 9.62-2.6 18.84 3.82 24.77 2.24 2.07 3.65 3.82 3.15 3.89-.51.08-3.39.19-6.42.25-5.47.11-5.51.14-7.75 4.58-2.6 5.16-2.87 11.58-.72 17.53 1.82 5.06 1.81 5.5-.08 5.5-.85 0-2.17-1.46-2.92-3.25-.75-1.78-2.78-4.6-4.51-6.24-2.62-2.5-3.89-2.97-7.58-2.83-2.44.09-4.44.06-4.44-.07 0-.14.71-2.32 1.57-4.85 1.42-4.18 1.42-4.87-.02-7.66-2.2-4.26-7.07-5.16-13.8-2.56-3.44 1.33-1.8-2.48 2.13-4.96 4.12-2.6 6.12-6.55 6.12-12.1 0-4.61-1.93-5.81-7.97-4.98-2.88.4-5.03.3-5.03-.22 0-.51 2.91-3.49 6.46-6.63 7.22-6.38 9.23-11.12 6.16-14.51-2.44-2.7-2.02-3.76 2.74-7.04 3.38-2.32 4.63-3.99 5.59-7.43 1.46-5.2 1.11-8.17-.96-8.17-1.07 0-1.49 1.13-1.49 4 0 3.27-.37 4.06-2.04 4.3-1.12.16-4.03 2-6.47 4.1-3.99 3.44-4.43 4.26-4.43 8.21 0 2.42.37 5.63.83 7.14.8 2.67.71 2.75-3.03 2.76-2.12 0-5.33.9-7.12 1.99-3.48 2.12-7.23 7.41-7.24 10.19 0 2.75-1.84 3.09-4.67.86-2.87-2.26-5.06-2.03-9.33.97-2.2 1.55-11.97 4.98-14.181 4.98-1.472 0-.858-3.04.738-3.66 1.943-.74 11.133-14.23 11.963-17.58.8-3.17-1.35-5.36-6.63-6.79-4.808-1.29-4.662-2.71.46-4.48 4.92-1.69 7.31-3.93 8.71-8.17 1.5-4.54-.17-8.6-4.68-11.39-1.86-1.15-3.38-2.5-3.38-3.01 0-.5 2.61-.92 5.79-.92 7.46 0 17.06-2.51 19.95-5.22 1.47-1.38 2.26-3.29 2.26-5.45 0-3.6 1.83-4.44 4-1.83 1.6 1.93 3.33 1.9 7.3-.14 5.18-2.65 5.84-5.36 1.3-5.36-2.58 0-5.21-2.51-5.76-5.5-.29-1.57-1.39-2.11-5.23-2.56-3.12-.36-5.35-1.23-6.23-2.44-1.9-2.59-1.73-7.45.33-9.73 1.48-1.63 1.51-2.02.25-2.81-2.75-1.74-3.67-.95-6.76 5.79-2.5 5.44-2.99 7.58-2.52 11 .69 5.04-.32 5.39-5.09 1.75-1.81-1.38-4.62-2.5-6.28-2.5-4.32 0-6.56 3.01-7.1 9.52-.25 3.02-.8 5.48-1.22 5.48-.413 0-2.554-1.8-4.754-4-2.704-2.7-4.881-4-6.717-4-3.5 0-9.37 2.79-10.848 5.16-1.713 2.74-3.267 2.24-4.307-1.39-1.082-3.77-10.722-11.13-16.364-12.49-4.579-1.11-4.425-2.27.5-3.77 5.358-1.63 12.718-6.76 20.098-14.03 4.095-4.03 7.999-6.77 11.988-8.4 3.253-1.34 9.739-4.38 14.414-6.77l8.5-4.35.85 2.27c1.68 4.48 2.39 5.28 4.95 5.59 3.88.46 6.7-1.45 6.7-4.54 0-5.51-14.7-16.85-27.664-21.35-5.959-2.07-34.064-7.93-38.026-7.93-5.516 0-2.699-4.28 3.985-6.06 2.313-.62 4.985-1.82 5.937-2.67 1.381-1.23 2.029-1.3 3.204-.32 1.721 1.43 14.445 6.07 26.564 9.69 6.22 1.85 11.79 2.68 20.75 3.08 12.72.58 14.18 1.22 10.68 4.71-1.06 1.06-3.42 1.57-7.18 1.57h-5.62l5.99 5.75c5.44 5.24 11.33 13.82 11.41 16.63.02.62 1.1 1.9 2.4 2.85 2.29 1.66 2.43 1.64 3.92-.63 2.07-3.17 5.95-4.01 9.66-2.09 2.56 1.32 2.99 2.12 2.99 5.52 0 5.5 2.34 5.27 9.87-1 5.41-4.5 6.09-5.5 7.13-10.54.64-3.07.86-7.36.49-9.53-.8-4.73.47-5.06 7.37-1.93 2.4 1.08 6 1.97 8 1.96 5.12-.03 11.22-3.75 12.56-7.66 1.58-4.66 2.44-5.02 3.65-1.55 1.81 5.18 5.24 6.73 14.68 6.65 4.54-.04 8.25.22 8.25.58s-1.99 2.08-4.42 3.83c-7.89 5.66-11.61 15.14-8.07 20.54 1.93 2.95 1.93 2.95-5.16 2.66-6.37-.26-9.1 1.13-10.95 5.56-1.26 3.01-1.25 3.79.08 6.36 2.06 3.99.34 4.77-3.72 1.68-6.66-5.05-17.27-3.97-21.41 2.17l-2.17 3.23-3.09-3.74c-2.81-3.41-3.22-3.6-4.66-2.15-1.45 1.44-1.36 1.83 1.04 4.42 2 2.16 2.56 3.67 2.33 6.38-.26 3.06-.86 3.82-4.35 5.44l-4.06 1.89.44 6.11c.51 7.27 1.72 10.93 3.43 10.37 1.91-.63 5.71-7.92 5.72-11.01.02-3.26 1.05-3.48 3.52-.75 1.81 2 6.97 2.71 9.03 1.24 3.1-2.2 5.47-6.8 5.49-10.62l.01-4.12 3.24 3.63c1.77 1.99 4.78 4.22 6.67 4.95 4.15 1.6 13.19 1.53 17.21-.14 1.6-.66 3.16-.96 3.47-.65 1.43 1.43 2.2 8.56 1.34 12.41-.61 2.71-.59 5.14.05 6.82.54 1.44.99 4.62.99 7.08 0 5.07-1.94 6.67-4.87 4.03-2.48-2.26-9.36-2.13-11.47.2-1.94 2.14-2.14 6.03-.5 9.63 1.44 3.16.44 4.38-1.9 2.32-.97-.85-4.17-2.76-7.12-4.24-4.7-2.35-5.73-2.54-8.25-1.49-2.04.84-2.89 1.9-2.89 3.58 0 3.39-1.79 2.94-5.54-1.38-1.79-2.06-3.58-3.43-3.97-3.05-1.62 1.58 7.48 11.84 12.26 13.82 1.24.51 2.25 1.57 2.25 2.34s.6 1.9 1.34 2.51c1.04.87 1.87.29 3.75-2.61 3.19-4.91 6.47-6.03 11.15-3.81 3.36 1.59 3.77 1.6 6.14.04 3.08-2.02 8.16-1.21 9.63 1.53.54 1.02.99 3.41.99 5.32 0 2.96.44 3.62 3 4.52 1.72.59 3.91 2.57 5.1 4.59 1.65 2.8 2.73 3.55 5.05 3.55 6.38 0 11.85-4.91 11.85-10.66 0-4.37 1.87-5.24 4.24-1.99 3.21 4.41 11.5 3.35 16.25-2.09l2.41-2.76.69 3.32c.96 4.64 4.31 6.61 9.94 5.84 2.46-.34 4.43-.29 4.38.11-.06.4-2.02 2.58-4.37 4.83z" fill="#2e5918"/><path d="M16.398 77.951c5.578 4.89 12.527 11.12 17.844 14.41-2.125-4.71-7.205-11.91-1.312-16.13 9.705-4.18 17.41-11.8 26.401-17.31 4.82-4.2 11.91-1.17 16.6-5.16-1.71-4.89-8.89-7.13-13.66-5.31-13.98 4.72-22.806 18.13-36.779 23.13-3.179 1.29-7.49 3.29-9.094 6.37zm.188-61.81c.515 2.84 3.884 3.19 6.25 3.28 5.551.3 10.99 1.53 16.312 3.09 2.847.85 5.785 1.41 8.657 2.1 7.363 3.15 16.146 2.66 22.686 7.75 5.76 2.28 10.57 6.64 13.78 11.9-2.62-7.55-9.8-12.18-16.75-15.34-3.21-1.31-6.3-3.15-9.81-3.44-7.905-1.39-16.008-3.77-22.188-9.12-2.567-2.42-3.966-5.95-6.906-7.97-2.757 4.27-8.739 4.09-12.031 7.69.004.02-.004.04 0 .06zm40.469 144.19c.003 0 .028.03.031.03s.028.03.031.03c.618 3.83 5.004 4.23 7.374 1.69 5.02-4.4 10.81-9.95 9.75-17.19 1.01-9.36 4.05-18.54 5-27.72 6.91-8.15 19.78-7.5 26.31-16.44 3.44-3.04-.78-7.11-4.34-6.68-6.27-.45-8.08 7.09-13.78 8.4-5.71 2.98-14.69 2.9-17.16 9.88 5.79 5.85.81 14.44-4.34 18.84-2.22 1.77 2.82 3.29 2.94 5.66 3.64 9.12-4.15 18.54-11.316 23.28a.19.19 0 0 0-.063.03h-.031c-.079.01-.199.02-.281.03h-.063c-.005.01-.025.03-.031.03h-.031v.03.1zm46.246-7.5c7.07 3.98 5.41 13.35 3.47 19.84-1.2 3.29.31 5.71 3.53 6.38 4.76 1.8 5.97 7.35 4.38 11.62 2.38 8.21 14.02 7.78 18 14.41-1.59-8.39-12.23-12.02-14-19.94.42-10.88-9.06-21.06-4.41-32.03 1.96-8.59 11.6-16.41 7.35-25.6-1.78-4.63-7.49-3.15-9.35.35-3.19 3.77-3.75 9.11-2.19 13.37-.65 4.66-5.9 7.23-6.78 11.6zm13.44-44.16c.38 4.49 4.89 8.33 9.31 6 4.98-1.16 5.44-7.94 10.5-8.16 8.16-3.17 17.21-10.92 26.19-5.53 4.53.44 11.06-1.76 12.38-6.4-2.88-3.86-7.98-.15-11.91-1.88-6.2-.84-12.59-5.28-18.31-4.65 2.36 8.02-7.98 13.48-14.57 9.9-.23-.19-.48-.32-.68-.4-.07-.03-.16-.05-.22-.07h-.28c-.02.01-.08.03-.1.03-.01 0-.05.01-.06 0-.01.01-.05.03-.06.04-.01 0-.05.02-.06.03-.11.05-.22.13-.32.22l-.06.06c-1.03 1.13-1.45 4.33-2.81 5.22-1.78 3.1-5.46 5.8-8.91 4.5-.01.23-.03.46-.03.68 0 .11-.01.21 0 .32v.09zm.72-48.22l.03.03c.01.01.03.05.03.07.31.77.34 4.17 1.44 5.09l.03.03c.03.02.07.05.09.06s.05.03.07.03c.06.03.13.05.18.07.03 0 .08.02.1.03h.25c.06-.01.15-.01.22-.03.23-.07.49-.22.78-.44.5-.32 1.01-.65 1.5-1 6.33 1.73 8.4-7.05 11.65-10.78 2.47-4.5 7.23-6.69 11.88-7.78 8.73-4.93 19.08-7.93 28.81-7.72 1.04.29 2.13.45 3.28.37 1.86.14 4.15-1.71 7.53-4.97-5.85-2.62-15.65.22-19.21-2.87-2.87-3.09-4.27-4.98-5.29-5.25-.01 0-.04-.03-.06-.03h-.34c-.02 0-.07.02-.1.03-.01.01-.05.03-.06.03-.01.01-.05.03-.06.03-.01.01-.05.03-.06.03-.68.43-1.34 1.84-2.41 4.41-6.19 5.53-15.12 6.6-22.72 3.37-.83-.48-1.48-.61-1.97-.53 0 .01-.02 0-.03 0-.03.01-.09.03-.12.03-.01.01-.03 0-.03 0-.04.02-.1.05-.13.07-.08.04-.18.1-.25.15-.03.03-.07.08-.09.1-1.11 1.13-.66 4.45-.35 5.97-.24 9.12-7.21 16.87-14.59 21.37.01.01 0 .03 0 .03zm44.91 146.06c.07.51.25.9.46 1.19 1.44 1.87 5.69-.31 7.82-.81.47-.04.88.03 1.22.19 2.11 1.01 1.97 5.53 3.06 8.34-.15 4.21-.87 8.59-.72 12.16.29 2.41-.01 5.17 1.31 7.28v.03h.03l.03.03h.04c0-.01.03-.03.03-.03l.03-.03.03-.03c.68-1.05 2.18-9.44 1.34-13.85-.06-.35-.14-.71-.18-1.09 1.28 3.14 2.77 6.53 4.43 8.06.88-1.54 1.97-1.89 3.07-1.56l2.37 4.5c.51.04 1.2.02 1.88.06.04.12.08.24.12.35.63.86 1.32 2.13 2.09 3.43.01.01.01.03 0 .03-.43 2.71-1.25 6.61-1.12 7.54v.06l.03.03v.03l.03.03.03.03c.02.01.06.03.07.03 0 .01.02.03.03.04h.06c.01 0 .05.02.06.03h.1c.01-.01.05-.03.06-.03h.09c.96-.24 2.71-1.91 3.63-3.85 1.31 1.06 2.84 1.42 4.65.28.5.31 1.21.71 1.88 1 .33.7.66 1.4 1 2.1 2.16.55 2.52 2.84 3.4 4.56 1.16 1.59.25 3.78 1.29 5.25.06.09.15.18.21.22.02 0 .05.02.07.03h.12c.01 0 .05-.03.06-.03.01-.01.03-.03.04-.03 0-.01.02-.03.03-.03.03-.06.06-.14.09-.22.35-1 .18-4.03-.97-6.41-1.16-2.03-2.33-4.08-3.62-6.03-.03-.06-.07-.16-.1-.22-.11-.2-.25-.45-.43-.72-2.29-5.85-7.56-9.55-11.07-14.22-7.21-11.91-13.68-24.39-15.22-38.43-.14-1.17-1.29-3.55-2.31-4.38l-.03-.03c-.11-.08-.24-.15-.34-.19-.01 0-.05-.02-.07-.03-.01 0-.05-.02-.06-.03h-.22c0 .01-.02.03-.03.03h-.06c-.02.01-.05.03-.06.03l-.03.03c-.01.01-.06.03-.07.03 0 .01-.02.03-.03.04l-.03.03s-.03.02-.03.03c-.02.03-.07.09-.09.12-.2.32-.35.89-.41 1.75-1.58 7.9-2.11 17.4-9.09 22.47-.01.22-.02.41 0 .6v.12c0 .04-.01.06 0 .09zm20.37-40.71c.01.01.03.05.03.06.01.01.03.05.03.06 4.55 7.37 14.26 2.62 19.85-.94 9.41-6.12 19.92-14.18 31.68-12.34-.21-6.83-9.42-8.66-14.87-7.25-3.84.25-5.26 6.43-8.75 2.91-3.57-2.79-9.8-1.44-9.66 3.75.1 8.13-10.28 8.9-15.84 11.62-.52.36-1.84.86-2.31 1.5-.01.01-.03.05-.03.06-.01.02-.03.06-.04.07 0 .01-.02.04-.03.06 0 .01-.02.05-.03.06 0 .02-.02.07-.03.09v.29z" opacity=".298" fill="#9dff02"/><path d="M108.257 52.466a8.382 6.925 0 1 1-1.031.05" fill="red"/><path d="M99.633 58.056c-.43 2.16 2.25 3.55 2.76 1.06 1.22-2.02-1.81-5.32-2.7-2.4-.11.44-.08.89-.06 1.34zm5.22 7.63c2.98 3.34 9.11 5.58 11.89.72 1.56-2.09.51-5.02-.81-6.91-.33 3.87-3.43 6.83-6.73 5.96-1.81-.18-3.14-2.06-5.06-1.42.24.55.48 1.1.71 1.65zm.42-11.4c1.04 2.22 1.81 3.66 2.82.91 2.24-1.01 4.66.84 6.99.46-2.44-1.94-5.74-6.31-8.99-3.95-.56.61-1.38 1.76-.82 2.58z"/><path d="M103.663 55.026c-1.17 1.5-1.57 3.55-1.16 5.41.26 1.21.99 2.39 2.14 2.9.91.42 1.95.39 2.9.15.67-.28.95-1.04 1.1-1.7.09-.54.18-1.11.02-1.65-.28-.24-.8.07-1.18-.04-1.3-.06-2.49-.9-3.09-2.04a5.142 5.142 0 0 1-.53-3.33c-.07.1-.13.2-.2.3z" opacity=".775" fill="#fff"/><path d="M100.095 61.485a8.383 6.925-16.887 1 1 1.001-.251" fill="red"/><path d="M109.981 64.331c1.03 1.94-1.13 4.04-2.34 1.82-1.76-1.58.18-5.62 1.89-3.09.23.39.34.83.45 1.27zm-2.79 8.81c-1.88 4.06-7.1 7.99-11.16 4.15-2.1-1.54-1.95-4.66-1.24-6.85 1.44 3.61 5.27 5.55 8.17 3.75 1.68-.7 2.41-2.89 4.43-2.83-.06.6-.13 1.19-.2 1.78zm-3.7-10.78c-.36 2.43-.68 4.03-2.45 1.69-2.43-.32-4.21 2.15-6.55 2.47 1.77-2.57 3.66-7.71 7.46-6.39.71.41 1.83 1.29 1.54 2.23z"/><path d="M98.641 64.601c-1.56 1.09-2.53 2.94-2.68 4.84-.1 1.23.25 2.57 1.2 3.4.75.66 1.76.94 2.73.98.73-.07 1.21-.72 1.55-1.31.25-.48.49-1.01.5-1.57-.2-.31-.79-.16-1.12-.38-1.22-.44-2.12-1.58-2.36-2.85-.24-1.12-.06-2.32.46-3.34-.09.07-.19.15-.28.23z" opacity=".775" fill="#fff"/><path d="M95.186 69.615a8.382 6.925 0 1 1-1.031.05" fill="red"/><path d="M86.562 75.205c-.43 2.16 2.25 3.55 2.76 1.06 1.22-2.02-1.81-5.32-2.7-2.4-.11.44-.08.89-.06 1.34zm5.22 7.63c2.98 3.34 9.11 5.58 11.89.72 1.56-2.09.51-5.02-.81-6.91-.33 3.87-3.43 6.83-6.73 5.96-1.81-.18-3.14-2.06-5.06-1.42.24.55.48 1.1.71 1.65zm.42-11.4c1.04 2.22 1.81 3.66 2.82.91 2.24-1.01 4.66.84 6.99.46-2.44-1.94-5.74-6.31-8.99-3.95-.56.61-1.38 1.76-.82 2.58z"/><path d="M90.592 72.175c-1.17 1.5-1.57 3.55-1.16 5.41.26 1.21.99 2.39 2.14 2.9.91.42 1.95.39 2.9.15.67-.28.95-1.04 1.1-1.7.09-.54.18-1.11.02-1.65-.28-.24-.8.07-1.18-.04-1.3-.06-2.49-.9-3.09-2.04a5.142 5.142 0 0 1-.53-3.33c-.07.1-.13.2-.2.3z" opacity=".775" fill="#fff"/><path d="M110.26 85.341a6.925 8.382 90 1 1-1.032-.05" fill="red"/><path d="M111.721 82.501c-1.5 1.17-3.56 1.57-5.41 1.16-1.21-.26-2.39-.99-2.91-2.14-.42-.91-.39-1.95-.15-2.9.28-.67 1.04-.95 1.7-1.1.54-.1 1.12-.18 1.65-.02.25.28-.07.8.05 1.18.06 1.3.89 2.48 2.04 3.09 1 .55 2.2.73 3.33.53-.1.07-.2.13-.3.2z" opacity=".775" fill="#fff"/><path d="M101.631 79.751c-.43-2.16 2.25-3.55 2.77-1.06 1.21 2.02-1.81 5.32-2.71 2.4-.11-.44-.08-.89-.06-1.34zm5.23-7.63c2.97-3.34 9.11-5.58 11.88-.72 1.56 2.09.51 5.02-.8 6.91-.33-3.87-3.43-6.83-6.74-5.96-1.81.18-3.14 2.06-5.06 1.42l.72-1.65zm.41 11.4c1.05-2.22 1.81-3.66 2.82-.91 2.24 1.01 4.66-.84 6.99-.46-2.43 1.94-5.73 6.31-8.99 3.95-.56-.61-1.38-1.76-.82-2.58z"/><path d="M237.181 157.701c-10.02 4.88.03 24.92-9.6 25.13-5.55-5.09-22.32-8.96-14.4 3.65 3.53 9.08-22.14-3.39-10.34 7.87 15.9 2.36-6.99 16.91 7.08 23.43 8.93.11 12.12 6.11 3.74 11.36-1.92 4.51 8.58 8.04-.05 12.28-1.97 4.71-4.5 23.86-5.21 8.86-.26-6.99-.53 14.44-3.36 3.25-.34-7.32-6.69-14.23-12.81-7.68-10.27 4.71 1.77-21.12-10.2-11.87-4.29 6.58-13.2 7.22-9.28-2.74 4.27-11.44-5.04-20.08-13.57-23.97 5.31-6.45 16.45-22.54 6.96-27.88-13.65 4.12-14.2-11.61-20.45-18.99 2.06-4.79-1.82-14.55-4.01-4.59-6.9 10.5 8.21 18.72 7.22 26.67-15.59-5.36-17.06 13.07-13.65 23.8-2.01 12.74-9.49-9.78-16.15-8.39-16.03 5.85 4.41-21.31-14.36-15.96-13.6 3.39-1.51-8.44 2.21-12.59 5.95-10.4-6.62-8.06-12.19-8.76.75-9.19 20.93-14.25 10.97-24.51 2.12-6.79 16.29-12.97 10.37-19.68.98 11.39-18.71 14.54-11.14 28.2-5.04 3.9-17.77 4.48-18.28 15.62-3.9 5.39-10.08-6.1-16.2 2.05-5.39 3.93-23.332 5.37-11.94-4.32 7-6.51 14.87-19.91.096-21.72-1.763-7.84 18.464-6.8 11.984-18.5-8.64-4.75-10.17-14.07 2.37-11.29 9.38.06 19.09-3.31 19.23-13.5 3.18 2.88 19.18 1.57 9.26-1.81-3.02-9.19-21.09-6.18-15.49-19.58 1.36-8.37-6.54 9.41-4.78 12.48 1.13 15.99-16.55-8.81-18.68 7.27.73 6.36-2.73 13.16-8.266 5.26-7.438-13.88-21.411 13.17-23.966-3.94-3.252-6.37-19.297-8.31-19.11-11.82 9.648-1.29 23.187 5.4 23.575 15.95 2.373-7.54 17.552-10.47 22.662-2.46 4.485 9.55-1.286-9.4 5.925-10.73 3.99-7.67 15.95 6.53 13.65-1.24-1.06-6.79 10.37-26.21 13.46-11.97-7.2 12.75 11.95 8.48 14.62 17.91 13.9 5.53-7.98 10.29-10.93 12.58-4.57 9.22-17.56 9.28-26.52 9.1-.6-.46 13 9.45 6.43 16.13-.14 6.88-16.775 7.32-6.25 9.59 10.88 7.78-6.03 22.8-7.67 26.4 7.15-3.23 19.62-7.66 23.47-5.38.48-13.43 22.36-8.73 17.07-22.78 3.17-8.89 13.42-12.96 15.98-21.65 12 7.28-5.62 18.22-5.34 25.34 5.27 9.23-9.89 17.86-12.25 20.55 14.83-7.51 15.99 17.02 3.93 20.28-5.38 3.47 11.98-5.22 13.25 3.78 3 6.25-1.93 13.79 8.2 13.45 4.78 2.26 10.41 16.88 6.14 4.59-2.53-8.96 1.67-25.31 13.94-20.71 3.29.79-11.36-8.64-6.98-15.21-4.29-5.99 2.92-23.75 11.57-14.17 1.76 5.6-1.45 13.64 6.52 16.49-2.12 10.94 8.54 9.02 15.38 9.01 5.6 9.83.23 22.87-5.71 30.83 12 2.95 12.35 16.94 10.4 26.85-2.12 3.78 13.68-12.73 15.95-.01-3.18 12.62 13.33 1.93 15.2 13.39 4.06-6.66 6.15-10.36 2.96-17.07 6.15-6.88 1.4-6.72-4.58-11.08-6.68-5.26-4.29-15.32-.2-19.81-10.72.74-13.14-20.39-.55-13.12 12.02 6.64-4.62-12.79 9.47-11.58 7.19-2.73 17.6 11.72 14.12-1.28.59-7.24 3.19-14.15 7.38-20.06-5.77.99-9.9-7.96-10.59-7.51-3.92 7.57-15.02 4.43-19.23 3.21-1.37 13.62-19.72 15.53-24.56 3.52-4.22-4.22-5.63-17.52-14.63-9.97-7.17-3.54-14.52-2.12-16.39 6.58-7.57-4.97-17.52-12.2-19.84-20.65 5.22 5.49 16.25 12.11 18.33 15.96 3.15-12.32 18.35-4.82 27.41-6.82 6.88 3.2 3.16 13.06 11.75 15.38 6.17 11.34 15.52-4 17.14-10.36 6.41 6.44 14.87 5.65 20.58-1.94 4.39 3.19 6.23 11.08 14.57 8.84 1.96 2.93-.94 6.62-2.82 8.76zm-54.21-119.17c-10.29 4.53-9.19 16.84-7.45 23.71-10.41-2.53-20.83 2.9-16.23 14.77-7.86-.62-22.78-10.31-28.23 3.33-4.19.46-12.07-11.32-5.23-1.38 7.86 11.16-12.8 12.25-6.12 23.97 5.02 8.98 2.73-18.97 10.97-8.37 9.47 8.92 12.19-8.55 13.82-13.03 6.67 6.16 15.8 13.1 25.61 8.58 14.35-3 6.03 18.69 9.27 27.14 1.62 16.19-19.5-5.8-17.64 11.11 6.64 13.34-9.57 3.14-14.67.86-7.01-2.82-4.28 11.92-10.46 3.27-3.4-2.98-13.68-16.81-3.63-8.07 4.76 11.68 9.49-4.21 17.91 1.74 4.67.87 14.22 12.9 7.38 2.17-4.11-11.75 12.44-11.44 17.21-8.71-.49-8.64.64-17.57-1.49-25.99-7.97.96-20.49 3.19-26.52-4.28-1.31 10.96-12.92 10.67-19.31 11.55-1.99 8.05-12.81 13.51-11.89 1.08-2.99-7.59-1.7-13.96 7.1-15.33 3.67-5.02-11.12-16.67 1.99-14.45 6.48 5.93 15.43-7.64 24.65-2.16 4.47 1.7 7.47 6.69 4.51-.45-.2-9.44 10.86-11.98 16.71-11.27-5.98-9.17 6.56-21.52 11.41-24.33-8.14 6.24-22.92-6.22-21.88-5.96-2.24 13-21.25 8.66-27.72 6.6 3.45 11.51-8.49 30.05-20 26.17 2.2-11.97-10.89-7.61-13.15-4.46-2.31-12.68 19.73-8.96 16.2 2.61 2.18-.38 6.18-5.37 9.06-7.53 4.51-2.29 4.29-6.64 3.91-11.06-2.91-10.11 3.97-13.5 12.23-7.76 3.91 2.89 7.78 1.45 11.61-.73 4.61-3.17 8.16-15.64 12.56-4.42 3.09 9.18 33.14-3.24 17.51 11.08zm-85.15 18c-6.8-8.42-14.89-19.29-20.61-27.08-4.29-4.03 20.81-3.59 6.26-4.9-17.76-.08-35.264-5.41-51.158-12.9-2.302-1.07-13.489 4.6-12.769 4.45 19.164 4 39.807 5.5 55.797 18.1 10.25 2.55 16.9 22.83 1.13 19.07-4.97-3.57-5.98-8.95-12.78-2.52-10.936 5.58-23.607 9.15-30.757 20.17-5.05 4.76-18.292 12.03-21.725 6.98 17.011-2.45 24.755-20.81 40.595-25.55 7.827-2.02 22.187-16.21 24.757-2.11 14.44.12-4.27-14.96-10.02-17.51-15.553-8.21-33.565-9.88-50.499-13.1-3.245-11.35 17.479-10.85 25.092-8.3 16.118 6.45 33.217 10.56 50.677 10.06 8.53 7.24-12.05 9.56-11.51 8.84 9.47 4.7 14.24 14.94 18.13 24.21l.12 1.58-.73.51z"/><path d="M116.957 76.313a8.382 6.925 0 1 1-1.031.05" fill="red"/><path d="M108.333 81.903c-.43 2.16 2.25 3.55 2.76 1.06 1.22-2.02-1.81-5.32-2.7-2.4-.11.44-.08.89-.06 1.34zm5.22 7.63c2.98 3.34 9.11 5.58 11.89.72 1.56-2.09.51-5.02-.81-6.91-.33 3.87-3.43 6.83-6.73 5.96-1.81-.18-3.14-2.06-5.06-1.42.24.55.48 1.1.71 1.65zm.42-11.4c1.04 2.22 1.81 3.66 2.82.91 2.24-1.01 4.66.84 6.99.46-2.44-1.94-5.74-6.31-8.99-3.95-.56.61-1.38 1.76-.82 2.58z"/><path d="M112.363 78.873c-1.17 1.5-1.57 3.55-1.16 5.41.26 1.21.99 2.39 2.14 2.9.91.42 1.95.39 2.9.15.67-.28.95-1.04 1.1-1.7.09-.54.18-1.11.02-1.65-.28-.24-.8.07-1.18-.04-1.3-.06-2.49-.9-3.09-2.04a5.142 5.142 0 0 1-.53-3.33c-.07.1-.13.2-.2.3z" opacity=".775" fill="#fff"/><path d="M108.583 78.406a8.382 6.925 0 1 1-1.031.05" fill="red"/><path d="M99.959 83.997c-.43 2.16 2.25 3.55 2.76 1.06 1.22-2.02-1.81-5.32-2.7-2.4-.11.44-.08.89-.06 1.34zm5.22 7.63c2.98 3.34 9.11 5.58 11.89.72 1.56-2.09.51-5.02-.81-6.91-.33 3.87-3.43 6.83-6.73 5.96-1.81-.18-3.14-2.06-5.06-1.42.24.55.48 1.1.71 1.65zm.42-11.4c1.04 2.22 1.81 3.66 2.82.91 2.24-1.01 4.66.84 6.99.46-2.44-1.94-5.74-6.31-8.99-3.95-.56.61-1.38 1.76-.82 2.58z"/><path d="M103.989 80.967c-1.17 1.5-1.57 3.55-1.16 5.41.26 1.21.99 2.39 2.14 2.9.91.42 1.95.39 2.9.15.67-.28.95-1.04 1.1-1.7.09-.54.18-1.11.02-1.65-.28-.24-.8.07-1.18-.04-1.3-.06-2.49-.9-3.09-2.04a5.142 5.142 0 0 1-.53-3.33c-.07.1-.13.2-.2.3z" opacity=".775" fill="#fff"/><path d="M93.512 70.681a6.925 8.382 90 1 1-1.031-.05" fill="red"/><path d="M94.971 65.841c-1.5 1.18-3.56 1.57-5.41 1.17-1.21-.27-2.39-.99-2.91-2.15-.41-.9-.39-1.95-.14-2.89.27-.68 1.04-.95 1.7-1.1.54-.1 1.11-.18 1.65-.02.24.27-.08.8.04 1.18.06 1.3.9 2.48 2.04 3.09 1 .55 2.2.72 3.33.53-.1.06-.2.13-.3.19z" opacity=".775" fill="#fff"/><path d="M84.881 65.091c-.42-2.16 2.25-3.54 2.77-1.06 1.22 2.02-1.81 5.32-2.7 2.41-.11-.44-.09-.9-.07-1.35zm5.23-7.62c2.98-3.34 9.11-5.58 11.88-.73 1.57 2.09.51 5.03-.8 6.92-.33-3.87-3.43-6.84-6.73-5.96-1.81.18-3.15 2.06-5.06 1.41.24-.54.47-1.09.71-1.64zm.41 11.39c1.05-2.22 1.81-3.65 2.83-.9 2.24 1.01 4.65-.84 6.99-.46-2.44 1.94-5.74 6.31-9 3.95-.55-.61-1.37-1.77-.82-2.59z"/><path d="M159.012 140.5a8.382 6.925 0 1 1-1.031.05" fill="red"/><path d="M150.388 146.09c-.43 2.16 2.25 3.55 2.76 1.06 1.22-2.02-1.81-5.32-2.7-2.4-.11.44-.08.89-.06 1.34zm5.22 7.63c2.98 3.34 9.11 5.58 11.89.72 1.56-2.09.51-5.02-.81-6.91-.33 3.87-3.43 6.83-6.73 5.96-1.81-.18-3.14-2.06-5.06-1.42.24.55.48 1.1.71 1.65zm.42-11.4c1.04 2.22 1.81 3.66 2.82.91 2.24-1.01 4.66.84 6.99.46-2.44-1.94-5.74-6.31-8.99-3.95-.56.61-1.38 1.76-.82 2.58z"/><path d="M154.418 143.06c-1.17 1.5-1.57 3.55-1.16 5.41.26 1.21.99 2.39 2.14 2.9.91.42 1.95.39 2.9.15.67-.28.95-1.04 1.1-1.7.09-.54.18-1.11.02-1.65-.28-.24-.8.07-1.18-.04-1.3-.06-2.49-.9-3.09-2.04a5.142 5.142 0 0 1-.53-3.33c-.07.1-.13.2-.2.3z" opacity=".775" fill="#fff"/><path d="M155.698 168.511a6.925 8.382 90 1 1-1.031-.05" fill="red"/><path d="M147.071 162.921c-.43-2.16 2.25-3.54 2.77-1.06 1.21 2.02-1.81 5.32-2.71 2.4-.11-.43-.08-.89-.06-1.34zm5.23-7.63c2.97-3.33 9.11-5.58 11.88-.72 1.56 2.09.51 5.02-.81 6.92-.32-3.87-3.42-6.84-6.73-5.97-1.81.18-3.14 2.07-5.06 1.42l.72-1.65zm.41 11.4c1.05-2.22 1.81-3.66 2.82-.9 2.24 1 4.66-.85 6.99-.46-2.44 1.94-5.73 6.3-8.99 3.94-.56-.6-1.38-1.76-.82-2.58z"/><path d="M157.161 163.671c-1.5 1.17-3.56 1.57-5.42 1.16-1.2-.26-2.38-.99-2.9-2.14-.42-.91-.39-1.95-.15-2.9.28-.67 1.04-.95 1.7-1.1.54-.09 1.12-.18 1.65-.02.25.28-.07.8.05 1.18.06 1.3.89 2.49 2.04 3.09 1 .55 2.2.73 3.33.53-.1.07-.2.13-.3.2z" opacity=".955" fill="#fff"/><path d="M162.88 164.254a8.382 6.925 0 1 1-1.032.05" fill="red"/><path d="M154.255 169.844c-.43 2.16 2.25 3.55 2.76 1.06 1.22-2.02-1.81-5.32-2.7-2.4-.11.44-.08.89-.06 1.34zm5.22 7.63c2.98 3.34 9.11 5.58 11.89.72 1.56-2.09.51-5.02-.81-6.91-.33 3.87-3.43 6.83-6.73 5.96-1.81-.18-3.14-2.06-5.06-1.42.24.55.48 1.1.71 1.65zm.42-11.4c1.04 2.22 1.81 3.66 2.82.91 2.24-1.01 4.66.84 6.99.46-2.44-1.94-5.74-6.31-8.99-3.95-.56.61-1.38 1.76-.82 2.58z"/><path d="M158.285 166.814c-1.17 1.5-1.57 3.55-1.16 5.41.26 1.21.99 2.39 2.14 2.9.91.42 1.95.39 2.9.15.67-.28.95-1.04 1.1-1.7.09-.54.18-1.11.02-1.65-.28-.24-.8.07-1.18-.04-1.3-.06-2.49-.9-3.09-2.04a5.142 5.142 0 0 1-.53-3.33c-.07.1-.13.2-.2.3z" opacity=".775" fill="#fff"/><path d="M171.718 139.4a8.382 6.925 0 1 1-1.031.051" fill="red"/><path d="M163.091 144.991c-.43 2.16 2.25 3.54 2.77 1.06 1.21-2.02-1.81-5.32-2.71-2.41-.11.44-.08.9-.06 1.35zm5.23 7.62c2.97 3.34 9.11 5.58 11.88.73 1.56-2.09.51-5.03-.81-6.92-.32 3.87-3.42 6.84-6.73 5.96-1.81-.18-3.14-2.06-5.06-1.41.24.54.48 1.09.72 1.64zm.41-11.39c1.05 2.22 1.81 3.65 2.82.9 2.24-1.01 4.66.84 6.99.46-2.43-1.94-5.73-6.31-8.99-3.94-.56.6-1.38 1.76-.82 2.58z"/><path d="M169.021 141.551c-1.69.07-2.9 1.19-3.3 2.86-.26 1.09-.09 2.54.75 3.89.65 1.07 1.61 1.94 2.58 2.57.72.38 1.29.07 1.7-.27.31-.3.62-.64.7-1.16-.15-.41-.76-.63-1.05-1.03-1.16-1.15-1.9-2.75-1.97-4.08-.09-1.19.25-2.19.89-2.83-.1.02-.2.04-.3.05z" opacity=".775" fill="#fff"/><path d="M175.585 152.1a8.382 6.925 0 1 1-1.031.051" fill="red"/><path d="M166.961 158.081c-.43 2.17 2.25 3.55 2.76 1.06 1.22-2.02-1.81-5.32-2.7-2.4-.11.44-.08.89-.06 1.34zm5.22 7.63c2.98 3.34 9.11 5.58 11.89.72 1.56-2.08.51-5.02-.81-6.91-.33 3.87-3.43 6.83-6.73 5.96-1.81-.18-3.14-2.06-5.06-1.42.24.55.48 1.1.71 1.65zm.42-11.39c1.04 2.21 1.81 3.65 2.82.9 2.24-1.01 4.66.84 6.99.46-2.44-1.94-5.74-6.31-8.99-3.95-.56.61-1.38 1.76-.82 2.59z"/><path d="M179.041 164.531c-1.5.52-3.55.02-5.41-1.2-1.21-.79-2.38-2.03-2.9-3.41a4.657 4.657 0 0 1-.15-2.97c.28-.55 1.04-.49 1.7-.35.54.14 1.12.31 1.65.7.24.38-.07.77.04 1.2.06 1.32.9 2.87 2.04 3.98 1.01.99 2.21 1.69 3.34 1.99-.11.02-.21.04-.31.06z" opacity=".904" fill="#fff"/><path d="M166.301 160.301c.98 1.93 2.38 8.55 4.75 5.91-1.47-1.86-4.14-4.83-4.75-5.91zm6.53 12.28c3.01 5.08 8.15 9.98 7.23 16.4-.51 4.07-3.71 6.89-7.32 8.38-1.7 3.32 4.7 4.12 5.6.63 1.9-2.1 5.12-6.27 7.32-5.82-.43 10.47-1.4 21.24-5.92 30.85-4.48.78-.37 6.82 2.11 2.98 2.59-3.77 2.4-8.64 3.66-12.93 1.01-4.49 2.1-9.04 1.82-13.68-.14-2.54 3.35-7.24 4.17-2.38 1.64 3.99 1.18 8.33.74 12.51-.55 4.06 1.41 7.79 1.54 11.81.5 3.5.96 7.3 3.34 10.09-.53-8.03-3.95-15.87-2.6-24 1.52-2.93 3.6-5.19 6.72-6.11.48-5.46-5.23-.43-7.44-2.97-4.59-3.43-5.81-9.71-10.51-13.05-3.55-3.59-6.68-7.67-8.74-12.31 6.42-.26 13.24 3.11 19.32-.25 5.1-1.26 5.18 5.22 7.3 7.96 2.81 1.13-1.3-3.9-1.39-5.16-2.69-4.84 2.78-7.52 6.8-7.72 5.04-.91 10.23-.87 15.29-.24 1.98.78 5.86 4.92 3.69.34-2.18-2.55-8.74-5.51-3.21-8.57 2.6-2.2 9.19-2.12 9.17-5.72-4.5-3.46-8.44 2.65-12.42 4.12-2.95 1.93-8.28 4.72-10.45 4.75 1.86-1.68.91-7.82-1.18-6.17.2 6.27-5.84 12.09-12.14 11.35-1.85-.23-3.9-7.06-4.25-2.32-.11 5.51-5.65 7.32-10.03 5.32-3.19.13-6.85-4.52-8.01-.1-.49.51-.98 1.46-.21 2.01zm26.13 42.18c2.07 2.73 1.44 8.89 6.07 7.82.84.94 4.24 5.85 3.64 3.08-2.85-4.43-7-7.88-9.68-12.43-1.17.02-.16 1.08-.03 1.53zm4.91 13.35c1.8 5.42 1.66 11.19 2.22 16.81 3.88.93.86-5.96 1.06-8.47-.98-2.69-.23-8.79-3-8.96-.5-.17-.53.43-.28.62zM61.051 158.201c2.37 6.93 9.02-2.73 11.54-5.44 1.85-2.78 8.24-10.37 9.18-3.37-.88 3.3.94 9.91 3 10.63l.13.03c-1.04-9.16-2.15-19.59 3.43-27.6 1.81-3.61 5.63-.27 7.16 1.5-2.8-5.89-.31-12.88 4.75-16.75 1.69-1.35 3.74-4.7 4.91-5.03.01 0 .05-.03.06-.03h.16c.02 0 .07.02.09.03h.03c.01 0 .03.03.03.03.01.01.05.03.07.03.04.04.08.08.12.13.03.04.07.11.09.16.21.42.32 1.26.29 2.59.24 1.74 1.88 4.72 2.46 4.97h.13c0-.01.03-.03.03-.03v-.03c0-.01.03-.03.03-.04.08-.27-.06-1.05-.53-2.56-1.91-3.98.33-13.64 4.5-13.22h.03c1.96 2.94 3.95 5.88 6 8.75.04.02.08.06.13.1.3.28.8.97 1.28 1.71 0 .01-.01.03 0 .04l.06.09c.26.53.76 1.55 1.09 2.34 1.38 4.72.77 9.7.44 14.57a.85.85 0 0 0-.59.06c-.05.02-.12.06-.16.09-1.58 1.22-2.06 7.69-4.03 9.19-2.54 5.09-6.68 9.3-11.81 11.75-.02.01-.05.02-.06.03-.16.08-.35.24-.44.41-.01 0-.03.02-.03.03-.01.02-.03.07-.03.09-.01.01 0 .03 0 .03-.01.01 0 .03 0 .04-.01 0 0 .02 0 .03s-.01.05 0 .06c0 0-.01.02 0 .03 0 .02.02.05.03.06 0 .02.02.05.03.06.98 6.08 7.49.3 9.59-2.21 2.69-3.01 4.4-6.75 6.69-10.03-.62 4.84-1.52 9.67-2.31 14.5-.57 3-.74 6.01-.66 9.03a7.34 7.34 0 0 0-.69-.88c-2.91 4.27-8.15 8.47-10.18 13.72l-.1 1c.57 3.47 3.98 2.77 3.5-.59 1.61-2.82 6.27-5.75 7.75-8.97.36 3.64 1 7.28 1.69 10.87-.36.02-.82.21-1.38.53-.48 2.87-1.18 5.74-.87 8.72.37 1.66 1.46 3.14 2.09 3.25.06.01.14-.01.19-.03.01-.01.05-.02.06-.03.02-.01.05-.05.07-.06.22-.28.24-1.04-.13-2.47.13-.88.53-2.43.84-4.06.59 3.69 1.46 7.33 3.19 10.68.38.88 2.61 5.17 3 5.53 0 .01.03 0 .03 0s.03.01.03 0c0-.06-.05-.24-.15-.53-.23-.97-1.41-3.22-1.53-3.5.04.07.24.39.65 1.13-.5-2.76-2.65-7.04-3.19-10.53-.25-4.7-1.5-9.31-2.03-14-1.27-7.71-.25-15.52 1.35-23.1.71-4.09 1.2-8.2 1.56-12.34 3.31 1.53 3.95 7.69 6.91 10.34.33 1.86 3.27 5.49 3.93 5.69h.1v-.03l.03-.03v-.1c-.03-.28-.36-.98-1.09-2.21-3.23-5.6-7.58-10.74-9.63-16.91.25-3.52.43-7.07.53-10.59.17-3.6-1.19-6.83-2.97-9.88 1.94 2.31 4.29 4.2 7.25 5.25 4.82 2.1 9.86-1.47 14.66.91 3.86.85 9.38 5.48 10.87 6.19-2.82-3.68-5.12-8.62-9.78-9.07-.75-.93-1.04-1.68-1.03-2.25.01-.09.01-.2.03-.28s.06-.18.1-.25c.02-.05.06-.11.09-.15.82-1.24 3.72-1.19 5.03-.69 3.23-6.09 10.73-1.83 15.63-.44 1.74-.07 4.44 1.66 5.12 1.59h.03c.01 0 .03-.03.03-.03h.04l.03-.03s-.01-.03 0-.03c0-.01.03-.02.03-.03v-.06c-.02-.3-.43-.98-1.41-2.25-2.06-3.58-8.72-3.55-10.31-4.88 3.86-5.33 13.47-4.38 16.87-6.91-3.32-6.28-9.65 1.33-13.75-1.46-.89-1-1.51-1.84-2-2.16a.672.672 0 0 0-.12-.06.467.467 0 0 0-.19-.06.139.139 0 0 0-.09 0c-.02 0-.07.02-.1.03s-.09.03-.12.06c-.31.23-.58.89-.91 2.12-2.04 5.71-8.74 4-8.75-1.78-.38-1.62-3.07-6.83-3.75-7.22 0 0-.02.01-.03 0h-.06c0 .01-.03.03-.03.03v.04a.75.75 0 0 0 0 .34c2.16 5.14 5.54 11.58 1.9 16.84-2.87 4.06-11.69 7.47-13.68.97-.89-1.98-4.08-7.22-4.85-7.72-.01 0-.05-.02-.06-.03h-.06v.03c0 .01-.03 0-.03 0v.03c-.01.02 0 .07 0 .1 1.94 4.59 6.68 12.42 3.43 16-9.18-.65-14.35-9.57-17.72-17.1-.57-3.47-3.64-5.72-4.74-1.03-3.74 5.45-8.44 11.55-15.57 12.35-8.05.95-15.96-1.09-23.9-2.06 1.59 5.73 8.25 4.23 12.59 5.18 5.07.81 10.27.95 15.34.06-6.29 8.46-15.84 13.9-25.62 17.35-2.86-.58-6.1.86-6.53 2.34-.03.09-.03.2-.03.28-.01.09.01.2.03.29.01.06.03.15.06.21.31.64 1.32 1.23 3.25 1.57 3.49-.35 12.21-4.98 10.38 1.96-5.2 6.87-11.13 13.26-18.04 18.44zm34.47-24.18c.13.26.29.52.44.78.06.04.09.07.13.09 0 0 .02.03.03.03 0 0 .03-.02.03-.03v-.03a.169.169 0 0 1-.03-.06c-.08-.16-.31-.45-.6-.78zm18.13-29.57c.7.31 1.43.91 2.22 1.85.51 1.07 1.04 2.16 1.62 3.25a55.726 55.726 0 0 1-3.84-5.1zm8.53 56.85c4.61 9.03 12.74 15.66 21.28 20.81-3.85-6.94-12.05-9.63-16.69-15.91-1.53-1.49-3.1-3.86-4.59-4.9z" opacity=".247"/><path d="M112.431 66.921c-.39 3.62 4.52 3.86 6.63 2.06 2.5-1.04 5.41-3.03 8.13-1.59 1.69.67 2.43 5.45 3.74 4.51-.57-1.89-2.71-3.48-1.9-5.8.37-2.28 2.85-3.49 4.99-3.02 6.2.42 12.37 2.12 17.72 5.34-.34-3.51-4-4.87-6.7-6.27-1.6-.81-4.97-3.15-1.42-3.56 4.33-1.85 8.58-4.56 13.47-4.39 3.96-1.49 8.28.78 11 3.66 0-3.76-4.83-4.88-5.47-8.34-.01-3.05 3.57-3.87 5.61-5.33 2.26-1.32 4.73-2.66 6.04-5.02-.63-3.73-5.11-2.06-6.09.51-2.16 2.02-5.82.42-6.28-2.35-1.77-2.83-1.18 2.04-1.46 3.23-1.59 5.64-6.61 9.47-11.76 11.77-4.25 2.02-8.78 3.42-12.99 5.53-.4-1.73 2.12-3.42 2.96-5.04 2.03-2.45 2.97-6.45.69-9.05-1.6-1.35-1.24 2.77-2.25 3.83-2.41 5.65-6.59 10.33-11.16 14.35-4.27 2.24-9.08 3.12-13.5 4.97zM20.711 79.361c-.03 3.5 4.255 3.19 6.675 2.75 2.768-.15 5.516-.45 8.293-.54 3.398-.54 4.944 3.73 2.258 5.67-2.026 2.44-5.461 4.82-4.757 8.43 2.333 3.23 4.257-2.05 5.526-3.69 5.138-6.59 11.217-13.34 19.599-15.56 3.166.59 3.806 4.37 2.896 6.97-.16 3.23-4.197 5.38-3.153 8.56 2.813 3.82 4.723-2.53 5.183-4.83.93-4.52.16-9.14.39-13.7 2.42-1.55 5.19-3.86 8.26-3 2.09 1.35 2.98 3.98 4.01 6.18.75 1.81 1.9 5.84 3.39 5.56.55-4.57-5.05-7.54-3.95-12.16 2.6-2.74 2.74-7.31 5.96-9.43 2.1-1.33 4.28-2.82 6.39-4.26 3.32-1.17.22-7.54-2.07-4.2-1.58 2.57-4.49 3.68-6.51 5.86-2.27 2.1-5.67 4.28-8.77 2.48-.73-4.53 1.84-9.64-1.06-13.73-1.5-1.41-1.12 3.65-1.34 5.05-.06 3.24.27 6.47.12 9.71-2.61 3.43-6.99 6.4-11.465 5.07-4.238-.12-5.943-5.75-10.236-5.55-3.467 1.14.835 4.54 3.116 4.26 3.135.6 6.313 3.18 6.443 6.54-.767 3.35-5.254 2.96-7.828 4.32-8.893 2.54-18.219 2.55-27.37 3.24z" opacity=".246"/></svg>