<svg xmlns="http://www.w3.org/2000/svg" viewBox="0 0 654.2 547.35" version="1"><path d="M275.31 450.29c-7.575.947-226.37-32.245-226.37-32.245-20.073-24.081-14.366-44.597-5-66.225-11.209-21.258-16.749-45.897 6.788-72.118-5.717-28.271-10.687-56.234 25.567-67.225-9.12-32.64 3.76-48.782 35.037-51.129-.546-36.019 10.844-59.402 53.029-50.182 12.37-56.649 35.706-34.711 54.923-32.192 18.48-47.138 45.496-34.705 73.755-25.618 40.11-32.48 53.473-10.038 74.755-.16 33.37-13.493 56.218-7.859 71.914 21.564 49.663-8.903 62.498 43.554 62.498 43.554 26.577-2.747 41.962 15.02 40.77 47.607 0 0 38.456 9.681 30.409 63.225 0 0 34.454 24.115 21.359 58.443 17.98 18.574 43.096 28.187 17.625 66.07 18.01 45.041-.91 48.307-7.682 68.065l-212.27 21.883z" stroke="#000" stroke-width="3" fill="#f7dda8"/><path d="M281.24 451.29c-7.19.9-212.88-29.65-212.88-29.65-19.053-22.85-14.892-44.27-6.003-64.79-10.637-20.172-13.742-44.705 8.595-69.586-5.426-26.826-10.142-53.36 24.264-63.789-8.655-30.972 3.569-46.289 33.25-48.516-.518-34.178 10.29-56.366 50.325-47.617 11.739-53.754 29.885-35.937 48.122-33.547 17.538-44.729 43.074-29.982 69.892-21.359 38.064-30.82 47.696-11.678 67.892-2.305 31.669-12.803 52.3-7.662 67.196 20.258 47.13-8.448 52.31 45.328 52.31 45.328 25.222-2.607 40.875 14.507 39.744 45.43 0 0 41.596 8.982 33.96 59.79 0 0 28.749 23.086 16.32 55.66 17.064 17.623 44 27.001 19.829 62.948 29.638 40.648.949 44.583-6.392 63.484l-200.6 20.867z" stroke="#000" stroke-width="3" fill="#63251b"/><path d="M280.38 449.19c-5.075.776-155.27-20.602-155.27-20.602-13.447-19.732-8.51-32.226-2.235-49.948-7.509-17.419-11.7-43.604 4.066-65.09-3.83-23.165-5.159-47.078 19.127-56.084-6.108-26.745-1.48-46.972 19.471-48.895-.365-29.514 13.265-52.674 41.524-45.119 8.286-46.419 24.095-35.032 36.968-32.969 12.38-38.625 35.405-27.891 54.336-20.445 26.869-26.614 41.668-2.084 55.924 6.01 22.355-11.056 35.917.383 46.433 24.493 33.268-7.296 33.925 47.142 33.925 47.142 17.803-2.251 28.852 21.527 28.054 48.23 0 0 28.362-.244 22.97 43.63 0 0 20.293 23.936 11.521 52.064 12.044 15.219 20.941 19.863 3.879 50.905 20.92 35.1 2.788 32.953-2.394 49.275l-142.6 14.02z" stroke="#000" stroke-width="3" fill="#af6e4c"/><path d="M40.524 349.35l263 90M49.524 278.35l238 109M74.524 212.35l230 153M109.52 161.35l168 147M162.52 109.35l124 159M220.52 79.353l57 122M291.52 50.353l18 128M366.52 51.353l-26 124M439.52 71.353l-63 116M503.52 118.35l-107 109M545.52 163.35l-145 128M573.52 230.35l-158 88M596.52 287.35l-191 86M613.52 354.35l-231 62" stroke="#000" stroke-width="3" fill="none"/><path d="M264.38 418.81c-7.807.823-6.683 10.947-6.333 16.933-.1 15.866.035 31.732.217 47.597-12.328-1.693-24.642-5.201-36.937-6.276-6.894.874-8.302 12.43-.845 13.689 4.781 1.767 21.738 2.067 18.408 4.658-10.547 5.03-22.244 8.157-32.33 13.833-5.42 5.563 2.104 15.502 8.646 11.143 12.92-5.147 25.713-10.63 38.591-15.903-1.22 7.338-7.415 14.203-6.116 21.735 2.803 7.613 14.94 5.982 15.17-2.822 3.238-8.792 6.173-17.714 9.334-26.536 11.556-5.376 24.08-9.096 35.287-14.91 5.61-4.532.94-14.687-6.035-12.216-9.552 3.587-18.958 7.768-28.366 11.626-.263-18.563-.257-37.174-.201-55.642-.55-4.273-4.447-7.268-8.49-6.908zM379.69 417.88c-8.812 1.224-7.357 12.358-6.68 19.039-.576 14.441-.064 29.019-.442 43.511-10.493-3.495-20.537-10.369-31.505-11.752-8.316 1.043-6.037 14.416 1.57 14.448 10.167 4.952 22.35 7.837 31.27 14.068 4.403 10.292 6.2 22.27 12.184 31.592 5.483 4.817 15.594-2.401 11.306-9.309-1.544-6.543-10.437-20.988 1.56-12.982 11.87 4.325 23.256 10.8 35.418 13.867 7.947.09 8.766-13.497.724-14.11l-30.74-12.764c7.855-2.584 17.74-.652 24.504-5.939 4.718-5.555-2.818-14.155-8.812-10.952l-32.672 5.813c-.103-20.08 1.035-40.45-.362-60.36-1.274-2.819-4.391-4.479-7.323-4.17z" fill-rule="evenodd" stroke="#000" stroke-linecap="round" stroke-width="2.563" fill="#ff7400"/><path stroke-linejoin="round" d="M463.35 328.21c.023 81.558-63.127 147.69-141.03 147.69-77.908 0-141.06-66.129-141.03-147.69-.023-81.558 63.127-147.69 141.03-147.69 77.908 0 141.06 66.129 141.03 147.69z" stroke="#000" stroke-linecap="round" stroke-width="3.513" fill="#ac4b3d"/><path d="M454.82 277.56c.099 2.267.16 4.574.16 6.866 0 81.499-63.175 147.64-141.03 147.64-60.852 0-112.78-40.436-132.54-97.006 3.418 78.329 65.246 140.81 140.91 140.81 77.852 0 141.03-66.137 141.03-147.64 0-17.795-3.01-34.87-8.53-50.672z" fill-opacity=".314"/><path stroke-linejoin="round" d="M415.49 236.48c.016 55.372-42.859 100.27-95.752 100.27-52.894 0-95.768-44.897-95.752-100.27-.016-55.372 42.859-100.27 95.752-100.27 52.894 0 95.768 44.897 95.752 100.27z" stroke="#000" stroke-linecap="round" stroke-width="2.385" fill="#ac4b3d"/><path stroke-linejoin="round" d="M142.82 56.167c.003 8.48-6.871 15.356-15.352 15.356-8.48 0-15.354-6.876-15.352-15.356-.003-8.48 6.871-15.356 15.352-15.356 8.48 0 15.354 6.876 15.352 15.356z" stroke="#000" stroke-linecap="round" stroke-width="1.806" fill="#fff" transform="matrix(1.7859 0 0 1.8696 130.46 114.5)"/><path d="M353.644 219.575c.001 5.285-4.09 9.57-9.139 9.57-5.048 0-9.14-4.285-9.139-9.57-.001-5.285 4.09-9.57 9.14-9.57 5.047 0 9.14 4.285 9.138 9.57z"/><path stroke-linejoin="round" d="M107.1 56.167c.003 8.48-6.871 15.356-15.352 15.356-8.48 0-15.354-6.876-15.352-15.356-.003-8.48 6.871-15.356 15.352-15.356 8.48 0 15.354 6.876 15.352 15.356z" stroke="#000" stroke-linecap="round" stroke-width="1.807" fill="#fff" transform="matrix(1.7859 0 0 1.8696 119.33 114.5)"/><path d="M304.67 219.575c.002 5.285-4.09 9.57-9.138 9.57s-9.14-4.285-9.139-9.57c-.001-5.285 4.09-9.57 9.139-9.57 5.048 0 9.14 4.285 9.139 9.57z"/><path d="M413.39 202.5l-2.247 3.58c.298 4.146.412 8.36.412 12.636 0 60.89-58.003 111.42-98.09 104.8-33.38-5.516-73.224-26.503-91.161-70.765 9.127 54.247 68.522 94.451 96.929 94.137 62.979-.69 98.09-47.357 98.09-108.25 0-12.659-1.289-24.815-3.933-36.14z" fill-opacity=".314"/><path stroke-linejoin="round" d="M292.74 285.39l23.732 58.522 26.092-52.545c-9.038-23.877-36.428-26.897-49.824-5.978z" fill-rule="evenodd" stroke="#000" stroke-linecap="round" stroke-width="2.371" fill="red"/><path stroke-linejoin="round" d="M286.72 268.24l16.366 67.974 41.962-49.004c-5.906-27.569-38.026-37.716-58.328-18.97z" fill-rule="evenodd" stroke="#000" stroke-linecap="round" stroke-width="2.722" fill="#ffce00"/><path stroke-linejoin="round" d="M360.25 326.97c-5.306-39.51-23.507-59.689-25.905-59.272 7.408 15.61 9.743 39.428.689 59.294-22.25 48.819 27.196 56.571 25.216-.022z" fill-rule="evenodd" stroke="#000" stroke-linecap="round" stroke-width="2.242" fill="red"/><path d="M419.032 151.307a101.868 42.141 1.66 1 1-203.65-5.898 101.868 42.141 1.66 1 1 203.65 5.898z" fill="#282828"/><path d="M256.44 152.19c47.412 28.421 84.958 21.019 120.04 4.655L364.49 62.16c-2.3-18.098-68.48-28.566-73.71-12.894l-34.34 102.92z" stroke="#353535" stroke-width="2.674" fill="#282828"/><path fill-opacity=".808" fill="#4b4b4b" d="M293.41 57.835l-22.544 69.637 6.313 3.566 22.156-68.896-5.925-4.306z"/><path d="M263.18 132.93c34.812 18.085 75.308 25.014 110.59 5.266l2.71 18.356-8.369 4.18-17.55 5.978-16.002 3.369-14.463 1.055-12.36-.358-14.352-2.774-20.127-6.774-14.519-7.201-2.597-1.844 7.036-19.254z"/><path d="M364.75 62.287c-2.292-18.098-68.735-28.689-74.244-12.912 20.546 17.506 48.861 21.832 74.244 12.912z" fill="#353535"/><path d="M237.65 139.86c-1.932 4.554-2.071 10.202 1.529 14.105 3.568 3.869 7.916 6.989 12.632 9.02 18.943 8.155 39.05 15.033 59.31 19.346 2.316.493 4.788 3.81.809 3.73-31.23-2.613-80.674-15.333-88.645-36.212-2.512-6.579.301-14.859 6.933-17.29 2.886-1.06 11.11-4.511 10.518.755-.27 2.402-2.136 4.305-3.087 6.547z" fill="#646464" fill-opacity=".808"/><path d="M276.01 134.7l-5.848 23.842 31.21 10.588 4.294-25.384-29.656-9.046zm4.077 5.26l20.237 6.576-3.278 16.32-20.713-7.23 3.754-15.666z" stroke="#e4e4e4" stroke-width="1.316" fill="#e4e4e4"/><path d="M256.44 152.19c47.412 28.421 84.958 21.019 120.04 4.655L364.49 62.16c-2.3-18.098-68.48-28.566-73.71-12.895l-34.34 102.92z" stroke="#353535" stroke-width="2.674" fill="none"/></svg>